<svg xmlns="http://www.w3.org/2000/svg" width="16" height="28" viewBox="0 0 16 28" fill="none"><path d="M7.8624 22.0093C7.86042 22.009 7.85908 22.0087 7.85838 22.0086L7.70444 22.0045C7.70355 22.0046 7.7012 22.005 7.69747 22.0054C7.68906 22.0065 7.67352 22.0083 7.65128 22.01C7.60679 22.0134 7.53537 22.0164 7.44004 22.0127C7.2496 22.0053 6.96261 21.971 6.60234 21.8585C5.88513 21.6343 4.85647 21.0932 3.71236 19.7966C2.03485 17.8954 1.35669 14.6571 1.11662 11.8094C0.997782 10.3996 0.98813 9.11223 1.00829 8.177C1.01836 7.7097 1.03588 7.33111 1.05078 7.07002C1.05155 7.05677 1.05231 7.0438 1.05304 7.03113H14.4891C14.4899 7.04419 14.4907 7.05757 14.4914 7.07123C14.5063 7.33312 14.5237 7.71285 14.5336 8.18139C14.5533 9.11908 14.5425 10.4094 14.4214 11.821C14.3001 13.2339 14.0689 14.7592 13.6512 16.1703C13.2327 17.5845 12.6339 18.8593 11.7929 19.7937C10.5856 21.1352 9.56523 21.6746 8.87656 21.8879C8.531 21.9949 8.26335 22.0216 8.09004 22.0236C8.00315 22.0246 7.93945 22.0195 7.90097 22.0149C7.88173 22.0126 7.8688 22.0105 7.8624 22.0093Z" stroke="white" stroke-linejoin="round"></path><path d="M7.65916 22.0823C7.68592 22.0846 7.7128 22.0842 7.73946 22.081L7.73844 22.0811M7.65916 22.0823C7.65859 22.0823 7.65802 22.0822 7.65744 22.0822L7.65821 22.0823L7.65916 22.0823ZM7.65916 22.0823L7.65614 22.0821C7.65228 22.0819 7.64499 22.0815 7.63448 22.081C7.61342 22.0802 7.57941 22.0795 7.53389 22.0804C7.44279 22.0822 7.30618 22.0904 7.13539 22.1171C6.79388 22.1706 6.31744 22.2978 5.79452 22.5947C5.08595 22.9971 4.79944 23.6727 4.69481 24.2947C4.64353 24.5995 4.63843 24.8802 4.64681 25.0871H10.7384C10.7466 24.8796 10.7411 24.5982 10.6888 24.2929C10.5822 23.671 10.2921 22.9957 9.57483 22.5964C9.01965 22.2873 8.54624 22.1607 8.21969 22.1101C8.0561 22.0847 7.92876 22.0783 7.84594 22.0778C7.80453 22.0775 7.77428 22.0788 7.75622 22.0799C7.7472 22.0804 7.74125 22.0809 7.73844 22.0811M7.73844 22.0811C7.73707 22.0813 7.73647 22.0813 7.73669 22.0813L7.73765 22.0812L7.73844 22.0811ZM4.67608 25.4171C4.67611 25.4172 4.67611 25.4172 4.67608 25.4171Z" stroke="white" stroke-linejoin="round"></path><path d="M3.29736 12.8121C3.27694 14.6732 3.89767 18.7675 6.54386 20.2564" stroke="white" stroke-linecap="round"></path><path d="M3.21777 11.0754V11.3074" stroke="white" stroke-linecap="round"></path><path d="M4.60381 3.1505C4.97559 3.1505 5.27697 2.84912 5.27697 2.47735C5.27697 2.10558 4.97559 1.8042 4.60381 1.8042C4.23204 1.8042 3.93066 2.10558 3.93066 2.47735C3.93066 2.84912 4.23204 3.1505 4.60381 3.1505Z" stroke="white"></path><path d="M7.77178 2.7545C8.14355 2.7545 8.44493 2.45312 8.44493 2.08135C8.44493 1.70958 8.14355 1.4082 7.77178 1.4082C7.40001 1.4082 7.09863 1.70958 7.09863 2.08135C7.09863 2.45312 7.40001 2.7545 7.77178 2.7545Z" stroke="white"></path><path d="M11.098 3.1505C11.4697 3.1505 11.7711 2.84912 11.7711 2.47735C11.7711 2.10558 11.4697 1.8042 11.098 1.8042C10.7262 1.8042 10.4248 2.10558 10.4248 2.47735C10.4248 2.84912 10.7262 3.1505 11.098 3.1505Z" stroke="white"></path><path d="M3.45508 26.7504H12.008" stroke="white" stroke-linecap="round"></path><path d="M5.76794 6.79353L5.00977 3.38169L6.19571 3.9147L6.37494 3.99525L6.52671 3.87049L7.77088 2.8479L9.01501 3.87049L9.16681 3.99525L9.34601 3.9147L10.532 3.38169L9.77378 6.79353H5.76794Z" stroke="white"></path></svg>