<?xml version="1.0" encoding="UTF-8"?>
<svg xmlns="http://www.w3.org/2000/svg" width="79" height="135" viewBox="0 0 79 135" fill="none">
  <path d="M11.8237 111.902C11.6797 112.022 11.4097 112.184 11.0137 112.388C10.6297 112.592 10.1557 112.772 9.59173 112.928C9.02773 113.084 8.40373 113.156 7.71973 113.144C6.67573 113.12 5.73973 112.934 4.91173 112.586C4.09573 112.226 3.39973 111.74 2.82373 111.128C2.25973 110.516 1.82773 109.814 1.52773 109.022C1.22773 108.23 1.07773 107.384 1.07773 106.484C1.07773 105.476 1.22773 104.552 1.52773 103.712C1.83973 102.872 2.27773 102.146 2.84173 101.534C3.41773 100.922 4.10173 100.448 4.89373 100.112C5.68573 99.776 6.56173 99.608 7.52173 99.608C8.40973 99.608 9.19573 99.728 9.87973 99.968C10.5637 100.208 11.1217 100.466 11.5537 100.742L10.5277 103.208C10.2277 102.98 9.82573 102.746 9.32173 102.506C8.82973 102.254 8.25973 102.128 7.61173 102.128C7.10773 102.128 6.62173 102.236 6.15373 102.452C5.69773 102.656 5.28973 102.95 4.92973 103.334C4.58173 103.718 4.30573 104.168 4.10173 104.684C3.89773 105.188 3.79573 105.74 3.79573 106.34C3.79573 106.976 3.88573 107.558 4.06573 108.086C4.25773 108.614 4.52773 109.07 4.87573 109.454C5.22373 109.826 5.63773 110.114 6.11773 110.318C6.60973 110.522 7.16173 110.624 7.77373 110.624C8.48173 110.624 9.08773 110.51 9.59173 110.282C10.0957 110.054 10.4797 109.814 10.7437 109.562L11.8237 111.902ZM25.5805 99.752V113H22.9705V107.618H17.0485V113H14.4385V99.752H17.0485V105.098H22.9705V99.752H25.5805ZM27.4992 113L33.4752 99.23H33.6192L39.5952 113H36.5712L32.7552 103.316L34.6452 102.02L30.0732 113H27.4992ZM31.5852 108.212H35.5632L36.4812 110.408H30.7752L31.5852 108.212ZM41.5264 113V99.212H41.5444L48.9064 109.652L47.7904 109.4L55.1344 99.212H55.1704V113H52.5604V105.098L52.7224 106.448L48.2404 112.82H48.2044L43.5964 106.448L44.0464 105.206V113H41.5264ZM62.6088 99.752C63.7008 99.752 64.6248 99.938 65.3808 100.31C66.1368 100.67 66.7128 101.186 67.1088 101.858C67.5048 102.518 67.7028 103.304 67.7028 104.216C67.7028 104.756 67.6188 105.302 67.4508 105.854C67.2948 106.394 67.0368 106.886 66.6768 107.33C66.3288 107.774 65.8548 108.134 65.2548 108.41C64.6668 108.674 63.9408 108.806 63.0768 108.806H61.2048V113H58.5948V99.752H62.6088ZM63.0588 106.268C63.4548 106.268 63.7848 106.202 64.0488 106.07C64.3128 105.926 64.5168 105.752 64.6608 105.548C64.8168 105.332 64.9248 105.11 64.9848 104.882C65.0568 104.654 65.0928 104.456 65.0928 104.288C65.0928 104.156 65.0688 103.982 65.0208 103.766C64.9848 103.538 64.9008 103.31 64.7688 103.082C64.6368 102.854 64.4328 102.662 64.1568 102.506C63.8928 102.35 63.5328 102.272 63.0768 102.272H61.2048V106.268H63.0588ZM77.1121 102.956C76.6081 102.68 76.0921 102.452 75.5641 102.272C75.0481 102.092 74.5621 102.002 74.1061 102.002C73.5421 102.002 73.0981 102.116 72.7741 102.344C72.4501 102.572 72.2881 102.914 72.2881 103.37C72.2881 103.682 72.4081 103.964 72.6481 104.216C72.9001 104.456 73.2181 104.672 73.6021 104.864C73.9981 105.056 74.4061 105.23 74.8261 105.386C75.2101 105.53 75.5881 105.704 75.9601 105.908C76.3441 106.1 76.6861 106.346 76.9861 106.646C77.2861 106.934 77.5261 107.3 77.7061 107.744C77.8861 108.176 77.9761 108.71 77.9761 109.346C77.9761 110.018 77.8021 110.642 77.4541 111.218C77.1061 111.794 76.5961 112.262 75.9241 112.622C75.2521 112.97 74.4241 113.144 73.4401 113.144C72.9361 113.144 72.4201 113.096 71.8921 113C71.3761 112.892 70.8661 112.736 70.3621 112.532C69.8581 112.316 69.3721 112.046 68.9041 111.722L70.0561 109.688C70.3681 109.916 70.7041 110.12 71.0641 110.3C71.4361 110.468 71.8081 110.6 72.1801 110.696C72.5521 110.792 72.8941 110.84 73.2061 110.84C73.5181 110.84 73.8301 110.798 74.1421 110.714C74.4661 110.618 74.7301 110.462 74.9341 110.246C75.1501 110.03 75.2581 109.73 75.2581 109.346C75.2581 109.082 75.1681 108.842 74.9881 108.626C74.8201 108.41 74.5861 108.212 74.2861 108.032C73.9981 107.852 73.6801 107.696 73.3321 107.564C72.9241 107.408 72.5041 107.228 72.0721 107.024C71.6401 106.82 71.2321 106.574 70.8481 106.286C70.4761 105.986 70.1701 105.62 69.9301 105.188C69.7021 104.744 69.5881 104.204 69.5881 103.568C69.5881 102.8 69.7561 102.134 70.0921 101.57C70.4401 101.006 70.9261 100.562 71.5501 100.238C72.1741 99.902 72.8941 99.716 73.7101 99.68C74.7781 99.68 75.6421 99.806 76.3021 100.058C76.9741 100.31 77.5741 100.61 78.1021 100.958L77.1121 102.956ZM3.80375 117.752H6.41375V128.48H12.6418V131H3.80375V117.752ZM15.335 117.752H24.371V120.272H17.945V123.098H23.633V125.618H17.945V128.48H24.623V131H15.335V117.752ZM25.8293 131L31.8053 117.23H31.9493L37.9253 131H34.9013L31.0853 121.316L32.9753 120.02L28.4033 131H25.8293ZM29.9153 126.212H33.8933L34.8113 128.408H29.1053L29.9153 126.212ZM50.0576 129.668C49.9016 129.836 49.6556 130.01 49.3196 130.19C48.9836 130.358 48.5936 130.514 48.1496 130.658C47.7176 130.802 47.2736 130.916 46.8176 131C46.3616 131.096 45.9296 131.144 45.5216 131.144C44.4416 131.144 43.4696 130.988 42.6056 130.676C41.7416 130.352 41.0036 129.908 40.3916 129.344C39.7796 128.768 39.3116 128.09 38.9876 127.31C38.6636 126.53 38.5016 125.678 38.5016 124.754C38.5016 123.542 38.6816 122.492 39.0416 121.604C39.4136 120.704 39.9116 119.96 40.5356 119.372C41.1716 118.772 41.8976 118.328 42.7136 118.04C43.5416 117.752 44.4056 117.608 45.3056 117.608C46.1576 117.608 46.9376 117.704 47.6456 117.896C48.3536 118.076 48.9536 118.304 49.4456 118.58L48.5996 121.01C48.3836 120.89 48.0956 120.77 47.7356 120.65C47.3756 120.53 47.0096 120.434 46.6376 120.362C46.2656 120.278 45.9356 120.236 45.6476 120.236C44.9276 120.236 44.2916 120.326 43.7396 120.506C43.1876 120.686 42.7196 120.956 42.3356 121.316C41.9636 121.676 41.6816 122.126 41.4896 122.666C41.2976 123.194 41.2016 123.812 41.2016 124.52C41.2016 125.144 41.3096 125.708 41.5256 126.212C41.7416 126.704 42.0416 127.124 42.4256 127.472C42.8216 127.82 43.2836 128.084 43.8116 128.264C44.3516 128.444 44.9456 128.534 45.5936 128.534C45.9656 128.534 46.3076 128.51 46.6196 128.462C46.9316 128.402 47.1956 128.312 47.4116 128.192V126.59H45.1256V124.07H50.0576V129.668ZM55.3625 126.104C55.3625 126.524 55.4885 126.926 55.7405 127.31C55.9925 127.694 56.3225 128.006 56.7305 128.246C57.1505 128.486 57.6065 128.606 58.0985 128.606C58.6385 128.606 59.1185 128.486 59.5385 128.246C59.9585 128.006 60.2885 127.694 60.5285 127.31C60.7805 126.926 60.9065 126.524 60.9065 126.104V117.752H63.4805V126.158C63.4805 127.13 63.2405 127.994 62.7605 128.75C62.2805 129.494 61.6325 130.082 60.8165 130.514C60.0005 130.934 59.0945 131.144 58.0985 131.144C57.1145 131.144 56.2145 130.934 55.3985 130.514C54.5945 130.082 53.9525 129.494 53.4725 128.75C52.9925 127.994 52.7525 127.13 52.7525 126.158V117.752H55.3625V126.104ZM66.628 117.752H75.664V120.272H69.238V123.098H74.926V125.618H69.238V128.48H75.916V131H66.628V117.752Z" fill="black"></path>
  <path d="M39.7879 65.6779C39.7817 65.6767 39.7775 65.6759 39.7753 65.6755L39.292 65.6627C39.2892 65.6631 39.2818 65.6642 39.2701 65.6657C39.2437 65.6691 39.1949 65.6748 39.1251 65.6801C38.9854 65.6908 38.7612 65.7002 38.4619 65.6886C37.864 65.6653 36.963 65.5577 35.8319 65.2042C33.5802 64.5006 30.3507 62.8018 26.7587 58.7309C21.4921 52.7622 19.363 42.5954 18.6093 33.6547C18.2362 29.2288 18.2059 25.187 18.2692 22.2508C18.3008 20.7837 18.3558 19.5951 18.4026 18.7754C18.405 18.7338 18.4074 18.6931 18.4097 18.6533H60.5927C60.5951 18.6943 60.5976 18.7363 60.6 18.7792C60.6468 19.6014 60.7014 20.7936 60.7323 22.2646C60.7941 25.2085 60.7604 29.2595 60.3801 33.6913C59.9993 38.1272 59.2735 42.9159 57.9622 47.346C56.648 51.7861 54.7681 55.7881 52.1278 58.7218C48.3374 62.9334 45.134 64.627 42.9719 65.2965C41.887 65.6325 41.0467 65.7163 40.5026 65.7227C40.2298 65.7259 40.0298 65.7097 39.909 65.6954C39.8486 65.6882 39.808 65.6815 39.7879 65.6779Z" stroke="black" stroke-width="2.48633" stroke-linejoin="round"></path>
  <path d="M39.3999 65.9029C39.3162 65.9129 39.2318 65.9143 39.1478 65.9071C39.146 65.907 39.1442 65.9068 39.1424 65.9067L39.1433 65.9067L39.1448 65.9069L39.147 65.9071L39.1474 65.9071L39.1383 65.9065C39.1262 65.9057 39.1033 65.9044 39.0703 65.9031C39.0042 65.9006 38.8974 65.8983 38.7545 65.9011C38.4685 65.9067 38.0396 65.9324 37.5034 66.0164C36.4312 66.1843 34.9354 66.5837 33.2937 67.5159C31.0691 68.779 30.1696 70.9002 29.8411 72.853C29.6801 73.8098 29.6641 74.6911 29.6904 75.3408H48.8152C48.841 74.6894 48.8237 73.8058 48.6595 72.8474C48.3249 70.8947 47.4141 68.7747 45.1621 67.521C43.4191 66.5507 41.9328 66.1533 40.9076 65.9942C40.394 65.9145 39.9942 65.8944 39.7342 65.8929C39.6042 65.8921 39.5092 65.896 39.4525 65.8994C39.4242 65.901 39.4055 65.9026 39.3967 65.9034C39.3924 65.9038 39.3905 65.904 39.3912 65.9039L39.3942 65.9036L39.3971 65.9032L39.399 65.903L39.3999 65.9029ZM29.7823 76.3768C29.7824 76.3772 29.7824 76.3772 29.7823 76.3768L29.7823 76.3768Z" stroke="black" stroke-width="2.48633" stroke-linejoin="round"></path>
  <path d="M25.4551 36.8027C25.391 42.6456 27.3398 55.4999 35.6476 60.1742" stroke="black" stroke-width="2.48633" stroke-linecap="round"></path>
  <line x1="25.2051" y1="31.3506" x2="25.2051" y2="32.0788" stroke="black" stroke-width="2.48633" stroke-linecap="round"></line>
  <circle cx="29.5558" cy="4.35654" r="2.11338" stroke="black" stroke-width="1.98906"></circle>
  <circle cx="39.5011" cy="3.11338" r="2.11338" stroke="black" stroke-width="1.98906"></circle>
  <circle cx="49.9439" cy="4.35654" r="2.11338" stroke="black" stroke-width="1.98906"></circle>
  <line x1="25.9507" y1="80.5625" x2="52.803" y2="80.5625" stroke="black" stroke-width="2.48633" stroke-linecap="round"></line>
  <path d="M33.213 17.9072L30.8327 7.19562L34.556 8.86904L35.1187 9.12191L35.5952 8.73023L39.5013 5.51977L43.4073 8.73023L43.8839 9.12191L44.4465 8.86904L48.1699 7.19562L45.7895 17.9072H33.213Z" stroke="black" stroke-width="1.98906"></path>
</svg>
