<svg xmlns="http://www.w3.org/2000/svg" width="123" height="140" viewBox="0 0 123 140" fill="none"><path d="M82.5445 17.9931L83.5054 14.9472C106.148 23.8866 122.167 45.9647 122.167 71.7845C122.167 91.213 113.097 108.523 98.9599 119.711L97.2058 117.036C110.48 106.427 118.983 90.0987 118.983 71.7845C118.983 47.3901 103.896 26.5193 82.5445 17.9931ZM38.2388 15.1161C15.8204 24.1624 0 46.1259 0 71.7845C0 91.4554 9.2982 108.955 23.7392 120.127L24.621 116.762C11.5426 106.146 3.18476 89.9416 3.18476 71.7845C3.18476 47.5453 18.0799 26.7849 39.2163 18.1573L38.2388 15.1161Z" fill="white"></path><path d="M82.5445 17.9931L83.5054 14.9472C106.148 23.8866 122.167 45.9647 122.167 71.7845C122.167 91.213 113.097 108.523 98.9599 119.711L97.2058 117.036C110.48 106.427 118.983 90.0987 118.983 71.7845C118.983 47.3901 103.896 26.5193 82.5445 17.9931ZM38.2388 15.1161C15.8204 24.1624 0 46.1259 0 71.7845C0 91.4554 9.2982 108.955 23.7392 120.127L24.621 116.762C11.5426 106.146 3.18476 89.9416 3.18476 71.7845C3.18476 47.5453 18.0799 26.7849 39.2163 18.1573L38.2388 15.1161Z" stroke="white"></path><path fill-rule="evenodd" clip-rule="evenodd" d="M44.4495 11.3085L52.6122 15.1594L58.2132 8.08942L60.3831 5.35037L62.6961 7.96961L69.0456 15.1594L77.228 11.2988L81.4654 9.29948L80.0557 13.7678L75.9631 26.7407L74.0775 27.3889L75.9247 24.013L73.0221 24.6306L75.8184 15.7671L70.5133 18.2701L68.1773 19.3723L66.4675 17.4362L60.5263 10.7087L55.3083 17.2953L53.6133 19.4348L51.1447 18.2702L45.8904 15.7914L48.7191 24.5916L46.1153 24.013L47.9625 27.3889L45.7778 26.6812L41.6318 13.7823L40.1909 9.29948L44.4495 11.3085Z" fill="white"></path><circle cx="40.128" cy="8.78992" r="3.37585" fill="white" stroke="white" stroke-width="0.12739" stroke-linejoin="round"></circle><circle cx="60.7652" cy="3.43954" r="3.37585" fill="white" stroke="white" stroke-width="0.12739" stroke-linejoin="round"></circle><circle cx="81.4025" cy="8.78992" r="3.37585" fill="white" stroke="white" stroke-width="0.12739" stroke-linejoin="round"></circle><path d="M71.3436 27.7997C70.3045 29.6275 70.2244 29.7683 69.9373 31.7203C69.9373 31.7203 74.1174 29.2717 77.6445 28.5356C82.3579 27.5517 88.0268 28.2171 88.0268 28.2171L85.4153 29.5547L83.0586 31.0834C83.0586 31.0834 87.9317 31.4565 90.2561 33.249C92.104 34.674 93.7594 38.0898 93.7594 38.0898C93.7594 38.0898 88.724 34.3951 84.9694 34.1407C81.2468 33.8885 75.7973 36.8159 75.7973 36.8159C75.7973 36.8159 75.9277 35.5854 76.1795 34.8414C76.646 33.4624 78.2177 31.7203 78.2177 31.7203C78.2177 31.7203 74.3302 33.2958 72.1667 34.8414C69.8765 36.4774 67.0074 40.2555 67.0074 40.2555C67.0074 40.2555 66.7066 38.0162 66.6889 36.8159C66.6683 35.4176 67.0074 33.249 67.0074 33.249C67.0074 33.249 64.6962 35.801 63.5041 37.644C62.3621 39.4095 61.02 42.4211 61.02 42.4211C61.02 42.4211 59.678 39.4095 58.5359 37.644C57.3438 35.801 55.0327 33.249 55.0327 33.249C55.0327 33.249 55.3718 35.4176 55.3511 36.8159C55.3334 38.0162 55.0327 40.2555 55.0327 40.2555C55.0327 40.2555 52.1635 36.4774 49.8733 34.8414C47.7098 33.2958 43.8223 31.7203 43.8223 31.7203C43.8223 31.7203 45.394 33.4624 45.8605 34.8414C46.1123 35.5854 46.2427 36.8159 46.2427 36.8159C46.2427 36.8159 40.7932 33.8885 37.0706 34.1407C33.316 34.3951 28.2807 38.0898 28.2807 38.0898C28.2807 38.0898 29.936 34.674 31.7839 33.249C34.1083 31.4565 38.9815 31.0834 38.9815 31.0834L36.6247 29.5547L34.0132 28.2171C34.0132 28.2171 39.6821 27.5517 44.3955 28.5356C47.9226 29.2717 52.1027 31.7203 52.1027 31.7203C51.8156 29.7683 51.7355 29.6275 50.6964 27.7997C50.5827 27.5996 50.4575 27.3794 50.3192 27.1343C50.3192 27.1343 54.2132 27.9215 56.3703 29.1725C58.4592 30.384 61.02 33.249 61.02 33.249C61.02 33.249 63.5808 30.384 65.6698 29.1725C67.8268 27.9215 71.7208 27.1343 71.7208 27.1343C71.5826 27.3794 71.4573 27.5996 71.3436 27.7997Z" fill="white"></path><path d="M15.7964 54.9054C18.5391 48.8038 27.7711 43.5676 27.7711 43.5676C27.7711 43.5676 24.3559 47.3225 22.9303 50.1919C21.586 52.8976 20.6372 57.5806 20.6372 57.5806C20.6372 57.5806 25.1405 55.0464 28.4081 54.0137C31.5208 53.0298 36.6884 52.3576 36.6884 52.3576C36.6884 52.3576 28.498 62.5001 25.7329 70.1922C22.798 78.3567 22.9303 92.2308 22.9303 92.2308C22.9303 92.2308 18.1692 82.9076 17.8347 76.4344C17.529 70.5196 20.6372 61.5297 20.6372 61.5297C20.6372 61.5297 18.2865 62.8686 16.9429 63.9501C15.4631 65.1412 13.5034 67.3897 13.5034 67.3897C13.5034 67.3897 13.8204 59.3012 15.7964 54.9054Z" fill="white"></path><path d="M106.371 54.9054C103.628 48.8038 94.3963 43.5676 94.3963 43.5676C94.3963 43.5676 97.8115 47.3225 99.2372 50.1919C100.581 52.8976 101.53 57.5806 101.53 57.5806C101.53 57.5806 97.0269 55.0464 93.7593 54.0137C90.6466 53.0298 85.479 52.3576 85.479 52.3576C85.479 52.3576 93.6694 62.5001 96.4345 70.1922C99.3694 78.3567 99.2372 92.2308 99.2372 92.2308C99.2372 92.2308 103.998 82.9076 104.333 76.4344C104.638 70.5196 101.53 61.5297 101.53 61.5297C101.53 61.5297 103.881 62.8686 105.224 63.9501C106.704 65.1412 108.664 67.3897 108.664 67.3897C108.664 67.3897 108.347 59.3012 106.371 54.9054Z" fill="white"></path><path d="M41.2745 108.091C38.8201 105.7 37.3254 100.256 37.3254 100.256C37.3254 100.256 36.561 102.04 36.561 105.352C36.561 107.561 37.3254 110.957 37.3254 110.957C37.3254 110.957 32.6838 105.882 30.6374 102.04C28.7471 98.4911 27.7977 96.3239 27.1342 92.3582C26.2322 86.9672 26.8805 83.4403 28.2807 78.4089C29.7927 72.9754 34.7139 65.4788 34.7139 65.4788C34.7139 65.4788 32.3852 73.2763 32.3572 78.4089C32.3358 82.3211 33.6311 88.3454 33.6311 88.3454C33.6311 88.3454 35.5457 84.5229 37.3254 82.4854C38.9264 80.6526 42.0388 78.4089 42.0388 78.4089C42.0388 78.4089 39.8939 89.6545 42.8032 95.7977C44.9517 100.335 47.1479 102.687 51.402 105.352C57.1983 108.983 61.3385 111.849 61.3385 111.849V119.811L53.3766 116.69C53.3766 116.69 46.179 112.868 41.2745 108.091Z" fill="white"></path><path d="M57.1346 86.3708C58.8783 87.0078 61.4022 87.0078 61.4022 87.0078V87.8995C61.4022 87.8995 58.6633 87.8787 56.3703 87.6447C55.4573 87.5516 54.8273 87.3118 54.3957 86.3708C53.9353 85.3668 54.7779 83.5682 54.7779 83.5682C54.7779 83.5682 55.7914 85.8802 57.1346 86.3708Z" fill="white"></path><path d="M61.3385 89.3645C61.3385 89.3645 59.1 89.4901 57.7079 89.8104C56.351 90.1225 54.332 90.9569 54.332 90.9569C54.332 90.9569 52.657 89.1614 52.2938 87.7084C52.0955 86.9155 52.0724 86.1841 52.05 85.4761C52.0148 84.3644 51.9815 83.3105 51.2746 82.1669C50.6914 81.2233 49.3638 80.065 49.3638 80.065C49.3638 80.065 50.3777 82.4926 50.574 83.9504C50.7871 85.5337 50.68 86.462 50.5659 87.452C50.4412 88.533 50.308 89.6876 50.574 91.8486C50.6884 92.778 51.1218 94.2436 51.2746 94.1417C51.4275 94.0397 52.1451 93.0801 52.4848 92.613C52.4848 92.613 52.4541 94.1646 52.7396 95.0971C52.9839 95.8948 53.6951 97.0079 53.6951 97.0079L55.6059 95.0971C55.6059 95.0971 55.4959 97.2021 55.8607 98.4729C56.6956 101.382 61.2748 104.078 61.2748 104.078L61.3385 89.3645Z" fill="white"></path><path d="M81.3051 108.091C83.7596 105.7 85.2542 100.256 85.2542 100.256C85.2542 100.256 86.0186 102.04 86.0186 105.352C86.0186 107.561 85.2542 110.957 85.2542 110.957C85.2542 110.957 89.8958 105.882 91.9422 102.04C93.8325 98.4911 94.7819 96.3239 95.4455 92.3582C96.3474 86.9672 95.6991 83.4403 94.299 78.4089C92.7869 72.9754 87.8658 65.4788 87.8658 65.4788C87.8658 65.4788 90.1945 73.2763 90.2225 78.4089C90.2438 82.3211 88.9486 88.3454 88.9486 88.3454C88.9486 88.3454 87.0339 84.5229 85.2542 82.4854C83.6532 80.6526 80.5408 78.4089 80.5408 78.4089C80.5408 78.4089 82.6857 89.6545 79.7764 95.7977C77.628 100.335 75.4317 102.687 71.1776 105.352C65.3813 108.983 61.3341 111.849 61.3341 111.849V119.811L69.203 116.69C69.203 116.69 76.4006 112.868 81.3051 108.091Z" fill="white"></path><path d="M65.5724 86.3708C63.8288 87.0078 61.3048 87.0078 61.3048 87.0078V87.8995C61.3048 87.8995 64.0437 87.8787 66.3368 87.6447C67.2497 87.5516 67.8797 87.3118 68.3113 86.3708C68.7718 85.3668 67.9291 83.5682 67.9291 83.5682C67.9291 83.5682 66.9156 85.8802 65.5724 86.3708Z" fill="white"></path><path d="M64.8718 89.8104C63.4796 89.4901 61.3341 89.3645 61.3341 89.3645L61.2704 104.078C61.2704 104.078 65.8841 101.382 66.7189 98.4729C67.0837 97.2021 66.9737 95.0971 66.9737 95.0971L68.8846 97.0079C68.8846 97.0079 69.5957 95.8948 69.84 95.0971C70.1255 94.1646 70.0948 92.613 70.0948 92.613C70.4345 93.0801 71.1521 94.0397 71.305 94.1417C71.4579 94.2436 71.8913 92.778 72.0056 91.8486C72.5152 87.7084 71.5598 87.2626 72.0056 83.9504C72.2019 82.4926 73.2158 80.065 73.2158 80.065C73.2158 80.065 71.8883 81.2233 71.305 82.1669C70.1481 84.0386 70.7954 85.6702 70.2859 87.7084C69.9226 89.1614 68.2476 90.9569 68.2476 90.9569C68.2476 90.9569 66.2286 90.1225 64.8718 89.8104Z" fill="white"></path><path d="M43.7586 46.6887C42.9257 47.8888 41.0197 49.2365 41.0197 49.2365C41.0197 49.2365 41.0566 47.3071 40.6375 46.1791C40.1712 44.9241 38.663 43.3765 38.663 43.3765C38.663 43.3765 39.7092 43.2236 40.3191 43.4402C41.0183 43.6887 41.784 44.6505 41.784 44.6505C41.784 44.6505 41.6244 41.9347 40.6375 40.6377C39.9175 39.6914 39.3906 38.982 38.2171 38.7905C37.3408 38.6475 36.769 38.8146 35.9878 39.2364C35.0571 39.7388 34.6825 40.3312 34.2043 41.2746C33.6772 42.3146 33.631 44.2046 33.631 44.2046C33.631 44.2046 32.9635 42.4367 33.0578 41.2746C33.1246 40.4504 33.207 39.9462 33.631 39.2364C34.4253 37.9067 35.5461 37.5353 37.0706 37.2618C39.1155 36.895 41.0052 37.5553 42.6758 38.7905C44.3955 40.062 45.2045 41.2382 45.1599 43.3765C45.1306 44.7807 44.5593 45.5349 43.7586 46.6887Z" fill="white"></path><path d="M78.911 46.6887C79.7439 47.8888 81.6499 49.2365 81.6499 49.2365C81.6499 49.2365 81.613 47.3071 82.0321 46.1791C82.4984 44.9241 84.0066 43.3765 84.0066 43.3765C84.0066 43.3765 82.9604 43.2236 82.3505 43.4402C81.6513 43.6887 80.8855 44.6505 80.8855 44.6505C80.8855 44.6505 81.0452 41.9347 82.0321 40.6377C82.7521 39.6914 83.279 38.982 84.4525 38.7905C85.3287 38.6475 85.9006 38.8146 86.6818 39.2364C87.6125 39.7388 87.9871 40.3312 88.4653 41.2746C88.9924 42.3146 89.0385 44.2046 89.0385 44.2046C89.0385 44.2046 89.7061 42.4367 89.6118 41.2746C89.5449 40.4504 89.4625 39.9462 89.0385 39.2364C88.2443 37.9067 87.1235 37.5353 85.599 37.2618C83.5541 36.895 81.6643 37.5553 79.9938 38.7905C78.274 40.062 77.4651 41.2382 77.5097 43.3765C77.539 44.7807 78.1102 45.5349 78.911 46.6887Z" fill="white"></path><path fill-rule="evenodd" clip-rule="evenodd" d="M61.2748 48.5359C61.2748 48.5359 59.1675 46.6888 57.7079 45.797C54.7562 43.9936 49.1727 43.8224 49.1727 43.8224C49.1727 43.8224 49.4912 45.4785 48.5357 47.0709C47.9161 48.1037 46.6795 49.0542 45.2965 50.1173C44.5471 50.6933 43.7548 51.3023 42.9943 51.9754C42.9943 51.9754 44.6978 53.249 43.5038 55.8608L40.4464 62.5488C40.4464 62.5488 40.8041 64.152 41.4656 64.9055C42.0848 65.611 43.5038 66.1794 43.5038 66.1794C43.5038 66.1794 44.6593 64.4342 45.7332 63.6953C46.7073 63.025 48.5357 62.5488 48.5357 62.5488C48.5357 62.5488 47.0628 64.4445 46.3701 65.7336C45.912 66.5862 45.4784 67.9629 45.4784 67.9629C45.4784 67.9629 47.0766 68.836 48.281 69.1094C49.324 69.3462 51.0199 69.4279 51.0199 69.4279C51.0199 69.4279 49.4111 70.288 48.281 70.447C47.1946 70.5999 45.4784 70.2559 45.4784 70.2559C45.4784 70.2559 45.4282 71.3869 45.9242 71.7209C49.0453 73.8229 53.504 72.4216 53.504 72.4216C53.504 72.4216 52.6667 73.2361 52.039 73.6318C51.2183 74.1491 49.746 74.5872 49.746 74.5872L52.039 75.4789C52.039 75.4789 51.7894 76.2652 52.039 76.8802C52.582 78.2182 54.5231 79.6191 54.5231 79.6191C54.5231 79.6191 53.9669 77.3293 54.5231 76.0522C55.0556 74.8293 56.1285 74.6956 57.3162 74.5475C58.2516 74.4308 59.2583 74.3053 60.1283 73.6318C60.5282 73.3222 60.41 72.9103 60.2766 72.4455C60.2104 72.215 60.1405 71.9714 60.1283 71.7209C60.1175 71.5016 60.1699 71.302 60.2189 71.1152C60.3006 70.8038 60.373 70.528 60.1283 70.2559C59.8979 69.9999 59.6187 69.9866 59.3241 69.9726C59.0867 69.9613 58.8394 69.9496 58.5996 69.8101C57.976 69.4474 57.3257 68.4725 57.3257 68.4725C57.3257 68.4725 58.0175 67.4681 57.8352 66.8164C57.6789 66.2571 57.3733 65.8971 56.8161 65.7336C56.5058 65.6425 55.9881 65.7336 55.9881 65.7336C55.6897 65.9076 55.6852 66.2039 55.6801 66.5355C55.6787 66.627 55.6773 66.7213 55.6696 66.8164C55.6556 66.99 55.6696 67.2623 55.6696 67.2623C55.6696 67.2623 53.8673 66.373 53.504 65.2877C53.2671 64.5801 53.2501 64.0786 53.504 63.3769C53.7274 62.7593 54.5231 62.0393 54.5231 62.0393C54.5231 62.0393 56.5794 63.6877 58.1537 64.1412C59.2835 64.4666 61.2748 64.4597 61.2748 64.4597V48.5359ZM54.2046 60.9564L54.4594 59.3004C54.4594 59.3004 55.8444 58.1457 56.3066 57.1347C56.585 56.5256 56.7524 55.4786 56.7524 55.4786L55.0964 56.4978L50.9562 54.3958L45.6695 54.2047C45.6695 54.2047 47.5675 54.6867 48.472 55.4786C49.5939 56.4608 50.2555 58.8545 50.2555 58.8545L53.504 59.3004L54.2046 60.9564Z" fill="white"></path><path fill-rule="evenodd" clip-rule="evenodd" d="M61.2111 48.5359C61.2111 48.5359 63.3184 46.6888 64.778 45.797C67.7297 43.9936 73.3132 43.8224 73.3132 43.8224C73.3132 43.8224 72.9947 45.4785 73.9501 47.0709C74.5698 48.1037 75.8064 49.0542 77.1894 50.1173C77.9388 50.6933 78.7311 51.3023 79.4916 51.9754C79.4916 51.9754 77.7881 53.249 78.9821 55.8608L82.0394 62.5488C82.0394 62.5488 81.6818 64.152 81.0203 64.9055C80.4011 65.611 78.9821 66.1794 78.9821 66.1794C78.9821 66.1794 77.8266 64.4342 76.7527 63.6953C75.7786 63.025 73.9501 62.5488 73.9501 62.5488C73.9501 62.5488 75.4231 64.4445 76.1158 65.7336C76.5739 66.5862 77.0075 67.9629 77.0075 67.9629C77.0075 67.9629 75.4093 68.836 74.2049 69.1094C73.1618 69.3462 71.466 69.4279 71.466 69.4279C71.466 69.4279 73.0748 70.288 74.2049 70.447C75.2912 70.5999 77.0075 70.2559 77.0075 70.2559C77.0075 70.2559 77.0577 71.3869 76.5616 71.7209C73.4406 73.8229 68.9819 72.4216 68.9819 72.4216C68.9819 72.4216 69.8191 73.2361 70.4469 73.6318C71.2676 74.1491 72.7399 74.5872 72.7399 74.5872L70.4469 75.4789C70.4469 75.4789 70.6965 76.2652 70.4469 76.8802C69.9039 78.2182 67.9628 79.6191 67.9628 79.6191C67.9628 79.6191 68.519 77.3293 67.9628 76.0522C67.4302 74.8293 66.3574 74.6956 65.1697 74.5475C64.2343 74.4308 63.2276 74.3053 62.3576 73.6318C61.9577 73.3222 62.0759 72.9103 62.2093 72.4455C62.2755 72.215 62.3453 71.9714 62.3576 71.7209C62.3683 71.5016 62.316 71.302 62.2669 71.1152C62.1852 70.8038 62.1129 70.528 62.3576 70.2559C62.588 69.9999 62.8672 69.9866 63.1618 69.9726C63.3992 69.9613 63.6465 69.9496 63.8863 69.8101C64.5098 69.4474 65.1602 68.4725 65.1602 68.4725C65.1602 68.4725 64.4684 67.4681 64.6506 66.8164C64.807 66.2571 65.1126 65.8971 65.6698 65.7336C65.98 65.6425 66.4978 65.7336 66.4978 65.7336C66.7962 65.9076 66.8007 66.2039 66.8057 66.5355C66.8071 66.627 66.8086 66.7213 66.8163 66.8164C66.8303 66.99 66.8163 67.2623 66.8163 67.2623C66.8163 67.2623 68.6186 66.373 68.9819 65.2877C69.2188 64.5801 69.2357 64.0786 68.9819 63.3769C68.7585 62.7593 67.9628 62.0393 67.9628 62.0393C67.9628 62.0393 65.9065 63.6877 64.3322 64.1412C63.2024 64.4666 61.2111 64.4597 61.2111 64.4597V48.5359ZM68.2813 60.9564L68.0265 59.3004C68.0265 59.3004 66.6415 58.1457 66.1793 57.1347C65.9009 56.5256 65.7335 55.4786 65.7335 55.4786L67.3895 56.4978L71.5297 54.3958L76.8164 54.2047C76.8164 54.2047 74.9184 54.6867 74.0138 55.4786C72.892 56.4608 72.2304 58.8545 72.2304 58.8545L68.9819 59.3004L68.2813 60.9564Z" fill="white"></path><path d="M71.3436 27.7997C70.3045 29.6275 70.2244 29.7683 69.9373 31.7203C69.9373 31.7203 74.1174 29.2717 77.6445 28.5356C82.3579 27.5517 88.0268 28.2171 88.0268 28.2171L85.4153 29.5547L83.0586 31.0834C83.0586 31.0834 87.9317 31.4565 90.2561 33.249C92.104 34.674 93.7594 38.0898 93.7594 38.0898C93.7594 38.0898 88.724 34.3951 84.9694 34.1407C81.2468 33.8885 75.7973 36.8159 75.7973 36.8159C75.7973 36.8159 75.9277 35.5854 76.1795 34.8414C76.646 33.4624 78.2177 31.7203 78.2177 31.7203C78.2177 31.7203 74.3302 33.2958 72.1667 34.8414C69.8765 36.4774 67.0074 40.2555 67.0074 40.2555C67.0074 40.2555 66.7066 38.0162 66.6889 36.8159C66.6683 35.4176 67.0074 33.249 67.0074 33.249C67.0074 33.249 64.6962 35.801 63.5041 37.644C62.3621 39.4095 61.02 42.4211 61.02 42.4211C61.02 42.4211 59.678 39.4095 58.5359 37.644C57.3438 35.801 55.0327 33.249 55.0327 33.249C55.0327 33.249 55.3718 35.4176 55.3511 36.8159C55.3334 38.0162 55.0327 40.2555 55.0327 40.2555C55.0327 40.2555 52.1635 36.4774 49.8733 34.8414C47.7098 33.2958 43.8223 31.7203 43.8223 31.7203C43.8223 31.7203 45.394 33.4624 45.8605 34.8414C46.1123 35.5854 46.2427 36.8159 46.2427 36.8159C46.2427 36.8159 40.7932 33.8885 37.0706 34.1407C33.316 34.3951 28.2807 38.0898 28.2807 38.0898C28.2807 38.0898 29.936 34.674 31.7839 33.249C34.1083 31.4565 38.9815 31.0834 38.9815 31.0834L36.6247 29.5547L34.0132 28.2171C34.0132 28.2171 39.6821 27.5517 44.3955 28.5356C47.9226 29.2717 52.1027 31.7203 52.1027 31.7203C51.8156 29.7683 51.7355 29.6275 50.6964 27.7997C50.5827 27.5996 50.4575 27.3794 50.3192 27.1343C50.3192 27.1343 54.2132 27.9215 56.3703 29.1725C58.4592 30.384 61.02 33.249 61.02 33.249C61.02 33.249 63.5808 30.384 65.6698 29.1725C67.8268 27.9215 71.7208 27.1343 71.7208 27.1343C71.5826 27.3794 71.4573 27.5996 71.3436 27.7997Z" stroke="white" stroke-width="0.12739" stroke-linejoin="round"></path><path d="M15.7964 54.9054C18.5391 48.8038 27.7711 43.5676 27.7711 43.5676C27.7711 43.5676 24.3559 47.3225 22.9303 50.1919C21.586 52.8976 20.6372 57.5806 20.6372 57.5806C20.6372 57.5806 25.1405 55.0464 28.4081 54.0137C31.5208 53.0298 36.6884 52.3576 36.6884 52.3576C36.6884 52.3576 28.498 62.5001 25.7329 70.1922C22.798 78.3567 22.9303 92.2308 22.9303 92.2308C22.9303 92.2308 18.1692 82.9076 17.8347 76.4344C17.529 70.5196 20.6372 61.5297 20.6372 61.5297C20.6372 61.5297 18.2865 62.8686 16.9429 63.9501C15.4631 65.1412 13.5034 67.3897 13.5034 67.3897C13.5034 67.3897 13.8204 59.3012 15.7964 54.9054Z" stroke="white" stroke-width="0.12739" stroke-linejoin="round"></path><path d="M106.371 54.9054C103.628 48.8038 94.3963 43.5676 94.3963 43.5676C94.3963 43.5676 97.8115 47.3225 99.2372 50.1919C100.581 52.8976 101.53 57.5806 101.53 57.5806C101.53 57.5806 97.0269 55.0464 93.7593 54.0137C90.6466 53.0298 85.479 52.3576 85.479 52.3576C85.479 52.3576 93.6694 62.5001 96.4345 70.1922C99.3694 78.3567 99.2372 92.2308 99.2372 92.2308C99.2372 92.2308 103.998 82.9076 104.333 76.4344C104.638 70.5196 101.53 61.5297 101.53 61.5297C101.53 61.5297 103.881 62.8686 105.224 63.9501C106.704 65.1412 108.664 67.3897 108.664 67.3897C108.664 67.3897 108.347 59.3012 106.371 54.9054Z" stroke="white" stroke-width="0.12739" stroke-linejoin="round"></path><path d="M41.2745 108.091C38.8201 105.7 37.3254 100.256 37.3254 100.256C37.3254 100.256 36.561 102.04 36.561 105.352C36.561 107.561 37.3254 110.957 37.3254 110.957C37.3254 110.957 32.6838 105.882 30.6374 102.04C28.7471 98.4911 27.7977 96.3239 27.1342 92.3582C26.2322 86.9672 26.8805 83.4403 28.2807 78.4089C29.7927 72.9754 34.7139 65.4788 34.7139 65.4788C34.7139 65.4788 32.3852 73.2763 32.3572 78.4089C32.3358 82.3211 33.6311 88.3454 33.6311 88.3454C33.6311 88.3454 35.5457 84.5229 37.3254 82.4854C38.9264 80.6526 42.0388 78.4089 42.0388 78.4089C42.0388 78.4089 39.8939 89.6545 42.8032 95.7977C44.9517 100.335 47.1479 102.687 51.402 105.352C57.1983 108.983 61.3385 111.849 61.3385 111.849V119.811L53.3766 116.69C53.3766 116.69 46.179 112.868 41.2745 108.091Z" stroke="white" stroke-width="0.12739" stroke-linejoin="round"></path><path d="M57.1346 86.3708C58.8783 87.0078 61.4022 87.0078 61.4022 87.0078V87.8995C61.4022 87.8995 58.6633 87.8787 56.3703 87.6447C55.4573 87.5516 54.8273 87.3118 54.3957 86.3708C53.9353 85.3668 54.7779 83.5682 54.7779 83.5682C54.7779 83.5682 55.7914 85.8802 57.1346 86.3708Z" stroke="white" stroke-width="0.12739" stroke-linejoin="round"></path><path d="M61.3385 89.3645C61.3385 89.3645 59.1 89.4901 57.7079 89.8104C56.351 90.1225 54.332 90.9569 54.332 90.9569C54.332 90.9569 52.657 89.1614 52.2938 87.7084C52.0955 86.9155 52.0724 86.1841 52.05 85.4761C52.0148 84.3644 51.9815 83.3105 51.2746 82.1669C50.6914 81.2233 49.3638 80.065 49.3638 80.065C49.3638 80.065 50.3777 82.4926 50.574 83.9504C50.7871 85.5337 50.68 86.462 50.5659 87.452C50.4412 88.533 50.308 89.6876 50.574 91.8486C50.6884 92.778 51.1218 94.2436 51.2746 94.1417C51.4275 94.0397 52.1451 93.0801 52.4848 92.613C52.4848 92.613 52.4541 94.1646 52.7396 95.0971C52.9839 95.8948 53.6951 97.0079 53.6951 97.0079L55.6059 95.0971C55.6059 95.0971 55.4959 97.2021 55.8607 98.4729C56.6956 101.382 61.2748 104.078 61.2748 104.078L61.3385 89.3645Z" stroke="white" stroke-width="0.12739" stroke-linejoin="round"></path><path d="M81.3051 108.091C83.7596 105.7 85.2542 100.256 85.2542 100.256C85.2542 100.256 86.0186 102.04 86.0186 105.352C86.0186 107.561 85.2542 110.957 85.2542 110.957C85.2542 110.957 89.8958 105.882 91.9422 102.04C93.8325 98.4911 94.7819 96.3239 95.4455 92.3582C96.3474 86.9672 95.6991 83.4403 94.299 78.4089C92.7869 72.9754 87.8658 65.4788 87.8658 65.4788C87.8658 65.4788 90.1945 73.2763 90.2225 78.4089C90.2438 82.3211 88.9486 88.3454 88.9486 88.3454C88.9486 88.3454 87.0339 84.5229 85.2542 82.4854C83.6532 80.6526 80.5408 78.4089 80.5408 78.4089C80.5408 78.4089 82.6857 89.6545 79.7764 95.7977C77.628 100.335 75.4317 102.687 71.1776 105.352C65.3813 108.983 61.3341 111.849 61.3341 111.849V119.811L69.203 116.69C69.203 116.69 76.4006 112.868 81.3051 108.091Z" stroke="white" stroke-width="0.12739" stroke-linejoin="round"></path><path d="M65.5724 86.3708C63.8288 87.0078 61.3048 87.0078 61.3048 87.0078V87.8995C61.3048 87.8995 64.0437 87.8787 66.3368 87.6447C67.2497 87.5516 67.8797 87.3118 68.3113 86.3708C68.7718 85.3668 67.9291 83.5682 67.9291 83.5682C67.9291 83.5682 66.9156 85.8802 65.5724 86.3708Z" stroke="white" stroke-width="0.12739" stroke-linejoin="round"></path><path d="M64.8718 89.8104C63.4796 89.4901 61.3341 89.3645 61.3341 89.3645L61.2704 104.078C61.2704 104.078 65.8841 101.382 66.7189 98.4729C67.0837 97.2021 66.9737 95.0971 66.9737 95.0971L68.8846 97.0079C68.8846 97.0079 69.5957 95.8948 69.84 95.0971C70.1255 94.1646 70.0948 92.613 70.0948 92.613C70.4345 93.0801 71.1521 94.0397 71.305 94.1417C71.4579 94.2436 71.8913 92.778 72.0056 91.8486C72.5152 87.7084 71.5598 87.2626 72.0056 83.9504C72.2019 82.4926 73.2158 80.065 73.2158 80.065C73.2158 80.065 71.8883 81.2233 71.305 82.1669C70.1481 84.0386 70.7954 85.6702 70.2859 87.7084C69.9226 89.1614 68.2476 90.9569 68.2476 90.9569C68.2476 90.9569 66.2286 90.1225 64.8718 89.8104Z" stroke="white" stroke-width="0.12739" stroke-linejoin="round"></path><path d="M43.7586 46.6887C42.9257 47.8888 41.0197 49.2365 41.0197 49.2365C41.0197 49.2365 41.0566 47.3071 40.6375 46.1791C40.1712 44.9241 38.663 43.3765 38.663 43.3765C38.663 43.3765 39.7092 43.2236 40.3191 43.4402C41.0183 43.6887 41.784 44.6505 41.784 44.6505C41.784 44.6505 41.6244 41.9347 40.6375 40.6377C39.9175 39.6914 39.3906 38.982 38.2171 38.7905C37.3408 38.6475 36.769 38.8146 35.9878 39.2364C35.0571 39.7388 34.6825 40.3312 34.2043 41.2746C33.6772 42.3146 33.631 44.2046 33.631 44.2046C33.631 44.2046 32.9635 42.4367 33.0578 41.2746C33.1246 40.4504 33.207 39.9462 33.631 39.2364C34.4253 37.9067 35.5461 37.5353 37.0706 37.2618C39.1155 36.895 41.0052 37.5553 42.6758 38.7905C44.3955 40.062 45.2045 41.2382 45.1599 43.3765C45.1306 44.7807 44.5593 45.5349 43.7586 46.6887Z" stroke="white" stroke-width="0.12739" stroke-linejoin="round"></path><path d="M78.911 46.6887C79.7439 47.8888 81.6499 49.2365 81.6499 49.2365C81.6499 49.2365 81.613 47.3071 82.0321 46.1791C82.4984 44.9241 84.0066 43.3765 84.0066 43.3765C84.0066 43.3765 82.9604 43.2236 82.3505 43.4402C81.6513 43.6887 80.8855 44.6505 80.8855 44.6505C80.8855 44.6505 81.0452 41.9347 82.0321 40.6377C82.7521 39.6914 83.279 38.982 84.4525 38.7905C85.3287 38.6475 85.9006 38.8146 86.6818 39.2364C87.6125 39.7388 87.9871 40.3312 88.4653 41.2746C88.9924 42.3146 89.0385 44.2046 89.0385 44.2046C89.0385 44.2046 89.7061 42.4367 89.6118 41.2746C89.5449 40.4504 89.4625 39.9462 89.0385 39.2364C88.2443 37.9067 87.1235 37.5353 85.599 37.2618C83.5541 36.895 81.6643 37.5553 79.9938 38.7905C78.274 40.062 77.4651 41.2382 77.5097 43.3765C77.539 44.7807 78.1102 45.5349 78.911 46.6887Z" stroke="white" stroke-width="0.12739" stroke-linejoin="round"></path><path fill-rule="evenodd" clip-rule="evenodd" d="M61.2748 48.5359C61.2748 48.5359 59.1675 46.6888 57.7079 45.797C54.7562 43.9936 49.1727 43.8224 49.1727 43.8224C49.1727 43.8224 49.4912 45.4785 48.5357 47.0709C47.9161 48.1037 46.6795 49.0542 45.2965 50.1173C44.5471 50.6933 43.7548 51.3023 42.9943 51.9754C42.9943 51.9754 44.6978 53.249 43.5038 55.8608L40.4464 62.5488C40.4464 62.5488 40.8041 64.152 41.4656 64.9055C42.0848 65.611 43.5038 66.1794 43.5038 66.1794C43.5038 66.1794 44.6593 64.4342 45.7332 63.6953C46.7073 63.025 48.5357 62.5488 48.5357 62.5488C48.5357 62.5488 47.0628 64.4445 46.3701 65.7336C45.912 66.5862 45.4784 67.9629 45.4784 67.9629C45.4784 67.9629 47.0766 68.836 48.281 69.1094C49.324 69.3462 51.0199 69.4279 51.0199 69.4279C51.0199 69.4279 49.4111 70.288 48.281 70.447C47.1946 70.5999 45.4784 70.2559 45.4784 70.2559C45.4784 70.2559 45.4282 71.3869 45.9242 71.7209C49.0453 73.8229 53.504 72.4216 53.504 72.4216C53.504 72.4216 52.6667 73.2361 52.039 73.6318C51.2183 74.1491 49.746 74.5872 49.746 74.5872L52.039 75.4789C52.039 75.4789 51.7894 76.2652 52.039 76.8802C52.582 78.2182 54.5231 79.6191 54.5231 79.6191C54.5231 79.6191 53.9669 77.3293 54.5231 76.0522C55.0556 74.8293 56.1285 74.6956 57.3162 74.5475C58.2516 74.4308 59.2583 74.3053 60.1283 73.6318C60.5282 73.3222 60.41 72.9103 60.2766 72.4455C60.2104 72.215 60.1405 71.9714 60.1283 71.7209C60.1175 71.5016 60.1699 71.302 60.2189 71.1152C60.3006 70.8038 60.373 70.528 60.1283 70.2559C59.8979 69.9999 59.6187 69.9866 59.3241 69.9726C59.0867 69.9613 58.8394 69.9496 58.5996 69.8101C57.976 69.4474 57.3257 68.4725 57.3257 68.4725C57.3257 68.4725 58.0175 67.4681 57.8352 66.8164C57.6789 66.2571 57.3733 65.8971 56.8161 65.7336C56.5058 65.6425 55.9881 65.7336 55.9881 65.7336C55.6897 65.9076 55.6852 66.2039 55.6801 66.5355C55.6787 66.627 55.6773 66.7213 55.6696 66.8164C55.6556 66.99 55.6696 67.2623 55.6696 67.2623C55.6696 67.2623 53.8673 66.373 53.504 65.2877C53.2671 64.5801 53.2501 64.0786 53.504 63.3769C53.7274 62.7593 54.5231 62.0393 54.5231 62.0393C54.5231 62.0393 56.5794 63.6877 58.1537 64.1412C59.2835 64.4666 61.2748 64.4597 61.2748 64.4597V48.5359ZM54.2046 60.9564L54.4594 59.3004C54.4594 59.3004 55.8444 58.1457 56.3066 57.1347C56.585 56.5256 56.7524 55.4786 56.7524 55.4786L55.0964 56.4978L50.9562 54.3958L45.6695 54.2047C45.6695 54.2047 47.5675 54.6867 48.472 55.4786C49.5939 56.4608 50.2555 58.8545 50.2555 58.8545L53.504 59.3004L54.2046 60.9564Z" stroke="white" stroke-width="0.12739" stroke-linejoin="round"></path><path fill-rule="evenodd" clip-rule="evenodd" d="M61.2111 48.5359C61.2111 48.5359 63.3184 46.6888 64.778 45.797C67.7297 43.9936 73.3132 43.8224 73.3132 43.8224C73.3132 43.8224 72.9947 45.4785 73.9501 47.0709C74.5698 48.1037 75.8064 49.0542 77.1894 50.1173C77.9388 50.6933 78.7311 51.3023 79.4916 51.9754C79.4916 51.9754 77.7881 53.249 78.9821 55.8608L82.0394 62.5488C82.0394 62.5488 81.6818 64.152 81.0203 64.9055C80.4011 65.611 78.9821 66.1794 78.9821 66.1794C78.9821 66.1794 77.8266 64.4342 76.7527 63.6953C75.7786 63.025 73.9501 62.5488 73.9501 62.5488C73.9501 62.5488 75.4231 64.4445 76.1158 65.7336C76.5739 66.5862 77.0075 67.9629 77.0075 67.9629C77.0075 67.9629 75.4093 68.836 74.2049 69.1094C73.1618 69.3462 71.466 69.4279 71.466 69.4279C71.466 69.4279 73.0748 70.288 74.2049 70.447C75.2912 70.5999 77.0075 70.2559 77.0075 70.2559C77.0075 70.2559 77.0577 71.3869 76.5616 71.7209C73.4406 73.8229 68.9819 72.4216 68.9819 72.4216C68.9819 72.4216 69.8191 73.2361 70.4469 73.6318C71.2676 74.1491 72.7399 74.5872 72.7399 74.5872L70.4469 75.4789C70.4469 75.4789 70.6965 76.2652 70.4469 76.8802C69.9039 78.2182 67.9628 79.6191 67.9628 79.6191C67.9628 79.6191 68.519 77.3293 67.9628 76.0522C67.4302 74.8293 66.3574 74.6956 65.1697 74.5475C64.2343 74.4308 63.2276 74.3053 62.3576 73.6318C61.9577 73.3222 62.0759 72.9103 62.2093 72.4455C62.2755 72.215 62.3453 71.9714 62.3576 71.7209C62.3683 71.5016 62.316 71.302 62.2669 71.1152C62.1852 70.8038 62.1129 70.528 62.3576 70.2559C62.588 69.9999 62.8672 69.9866 63.1618 69.9726C63.3992 69.9613 63.6465 69.9496 63.8863 69.8101C64.5098 69.4474 65.1602 68.4725 65.1602 68.4725C65.1602 68.4725 64.4684 67.4681 64.6506 66.8164C64.807 66.2571 65.1126 65.8971 65.6698 65.7336C65.98 65.6425 66.4978 65.7336 66.4978 65.7336C66.7962 65.9076 66.8007 66.2039 66.8057 66.5355C66.8071 66.627 66.8086 66.7213 66.8163 66.8164C66.8303 66.99 66.8163 67.2623 66.8163 67.2623C66.8163 67.2623 68.6186 66.373 68.9819 65.2877C69.2188 64.5801 69.2357 64.0786 68.9819 63.3769C68.7585 62.7593 67.9628 62.0393 67.9628 62.0393C67.9628 62.0393 65.9065 63.6877 64.3322 64.1412C63.2024 64.4666 61.2111 64.4597 61.2111 64.4597V48.5359ZM68.2813 60.9564L68.0265 59.3004C68.0265 59.3004 66.6415 58.1457 66.1793 57.1347C65.9009 56.5256 65.7335 55.4786 65.7335 55.4786L67.3895 56.4978L71.5297 54.3958L76.8164 54.2047C76.8164 54.2047 74.9184 54.6867 74.0138 55.4786C72.892 56.4608 72.2304 58.8545 72.2304 58.8545L68.9819 59.3004L68.2813 60.9564Z" stroke="white" stroke-width="0.12739" stroke-linejoin="round"></path><path d="M25.9507 125.498L28.5193 115.935L29.6975 116.108L29.7493 116.142L27.4918 124.477L34.3073 119.184L34.3591 119.219L34.7366 119.852L27.1807 125.705L26.0025 125.532L25.9507 125.498Z" fill="white"></path><path d="M25.9507 125.498L25.6431 125.415C25.6077 125.547 25.6603 125.687 25.7739 125.763L25.9507 125.498ZM28.5193 115.935L28.5656 115.62C28.4058 115.596 28.2536 115.696 28.2117 115.852L28.5193 115.935ZM29.6975 116.108L29.8743 115.843C29.8351 115.817 29.7905 115.8 29.7438 115.793L29.6975 116.108ZM29.7493 116.142L30.0567 116.226C30.0924 116.094 30.0398 115.953 29.926 115.877L29.7493 116.142ZM27.4918 124.477L27.1844 124.394C27.1486 124.526 27.2013 124.666 27.3153 124.742C27.4293 124.818 27.579 124.813 27.6872 124.729L27.4918 124.477ZM34.3073 119.184L34.4841 118.92C34.3701 118.844 34.2202 118.849 34.112 118.933L34.3073 119.184ZM34.3591 119.219L34.6326 119.056C34.6084 119.015 34.5753 118.98 34.5359 118.954L34.3591 119.219ZM34.7366 119.852L34.9316 120.104C35.0588 120.006 35.0925 119.828 35.0101 119.689L34.7366 119.852ZM27.1807 125.705L27.1344 126.021C27.2201 126.033 27.3072 126.01 27.3757 125.957L27.1807 125.705ZM26.0025 125.532L25.8257 125.797C25.8649 125.823 25.9095 125.841 25.9562 125.847L26.0025 125.532ZM26.2583 125.58L28.8269 116.017L28.2117 115.852L25.6431 125.415L26.2583 125.58ZM28.473 116.25L29.6512 116.423L29.7438 115.793L28.5656 115.62L28.473 116.25ZM29.5207 116.373L29.5725 116.407L29.926 115.877L29.8743 115.843L29.5207 116.373ZM29.4419 116.059L27.1844 124.394L27.7992 124.561L30.0567 116.226L29.4419 116.059ZM27.6872 124.729L34.5027 119.436L34.112 118.933L27.2965 124.226L27.6872 124.729ZM34.1305 119.449L34.1823 119.484L34.5359 118.954L34.4841 118.92L34.1305 119.449ZM34.0855 119.382L34.463 120.015L35.0101 119.689L34.6326 119.056L34.0855 119.382ZM34.5415 119.601L26.9856 125.454L27.3757 125.957L34.9316 120.104L34.5415 119.601ZM27.227 125.39L26.0488 125.217L25.9562 125.847L27.1344 126.021L27.227 125.39ZM26.1793 125.267L26.1275 125.233L25.7739 125.763L25.8257 125.797L26.1793 125.267Z" fill="white"></path><path d="M30.658 128.214L30.6855 128.158L31.3336 127.645L31.8524 127.901L32.9308 125.714L32.0939 125.302L32.1214 125.246L32.7695 124.733L33.2884 124.989L35.511 120.481L36.2399 120.494L39.777 122.238L39.7494 122.294L39.1014 122.806L36.4067 121.478L34.4041 125.539L37.0262 126.832L36.9987 126.888L36.3506 127.401L34.0465 126.264L32.9682 128.451L36.7786 130.33L36.7511 130.386L36.103 130.899L30.658 128.214Z" fill="white"></path><path d="M30.658 128.214L30.3724 128.073C30.2946 128.231 30.3594 128.422 30.5172 128.499L30.658 128.214ZM30.6855 128.158L30.4879 127.908C30.4509 127.938 30.4208 127.975 30.3999 128.017L30.6855 128.158ZM31.3336 127.645L31.4744 127.36C31.3642 127.305 31.2324 127.319 31.136 127.396L31.3336 127.645ZM31.8524 127.901L31.7116 128.187C31.8694 128.265 32.0603 128.2 32.1381 128.042L31.8524 127.901ZM32.9308 125.714L33.2164 125.855C33.2942 125.697 33.2294 125.506 33.0716 125.429L32.9308 125.714ZM32.0939 125.302L31.8083 125.161C31.7305 125.319 31.7953 125.51 31.9531 125.587L32.0939 125.302ZM32.1214 125.246L31.9238 124.996C31.8868 125.025 31.8567 125.063 31.8358 125.105L32.1214 125.246ZM32.7695 124.733L32.9104 124.448C32.8001 124.393 32.6684 124.407 32.5719 124.483L32.7695 124.733ZM33.2884 124.989L33.1475 125.275C33.3053 125.352 33.4962 125.288 33.574 125.13L33.2884 124.989ZM35.511 120.481L35.5165 120.163C35.3933 120.161 35.2799 120.23 35.2254 120.34L35.511 120.481ZM36.2399 120.494L36.3808 120.208C36.3386 120.187 36.2924 120.176 36.2454 120.175L36.2399 120.494ZM39.777 122.238L40.0626 122.379C40.1404 122.221 40.0755 122.03 39.9178 121.952L39.777 122.238ZM39.7494 122.294L39.947 122.543C39.9841 122.514 40.0142 122.477 40.0351 122.434L39.7494 122.294ZM39.1014 122.806L38.9605 123.092C39.0708 123.146 39.2025 123.132 39.2989 123.056L39.1014 122.806ZM36.4067 121.478L36.5476 121.192C36.3898 121.114 36.1989 121.179 36.1211 121.337L36.4067 121.478ZM34.4041 125.539L34.1185 125.398C34.0407 125.556 34.1056 125.747 34.2633 125.825L34.4041 125.539ZM37.0262 126.832L37.3119 126.973C37.3897 126.815 37.3248 126.624 37.1671 126.546L37.0262 126.832ZM36.9987 126.888L37.1963 127.138C37.2334 127.108 37.2635 127.071 37.2844 127.029L36.9987 126.888ZM36.3506 127.401L36.2098 127.686C36.3201 127.741 36.4518 127.727 36.5482 127.65L36.3506 127.401ZM34.0465 126.264L34.1874 125.979C34.0296 125.901 33.8387 125.966 33.7609 126.124L34.0465 126.264ZM32.9682 128.451L32.6826 128.311C32.6048 128.468 32.6696 128.659 32.8274 128.737L32.9682 128.451ZM36.7786 130.33L37.0643 130.471C37.1421 130.313 37.0772 130.122 36.9195 130.045L36.7786 130.33ZM36.7511 130.386L36.9487 130.636C36.9858 130.606 37.0159 130.569 37.0368 130.527L36.7511 130.386ZM36.103 130.899L35.9622 131.184C36.0725 131.239 36.2042 131.225 36.3006 131.148L36.103 130.899ZM30.9436 128.355L30.9712 128.299L30.3999 128.017L30.3724 128.073L30.9436 128.355ZM30.8831 128.408L31.5312 127.895L31.136 127.396L30.4879 127.908L30.8831 128.408ZM31.1928 127.931L31.7116 128.187L31.9933 127.616L31.4744 127.36L31.1928 127.931ZM32.1381 128.042L33.2164 125.855L32.6451 125.573L31.5668 127.76L32.1381 128.042ZM33.0716 125.429L32.2348 125.016L31.9531 125.587L32.7899 126L33.0716 125.429ZM32.3796 125.442L32.4071 125.387L31.8358 125.105L31.8083 125.161L32.3796 125.442ZM32.319 125.496L32.9671 124.983L32.5719 124.483L31.9238 124.996L32.319 125.496ZM32.6287 125.019L33.1475 125.275L33.4292 124.703L32.9104 124.448L32.6287 125.019ZM33.574 125.13L35.7966 120.622L35.2254 120.34L33.0027 124.848L33.574 125.13ZM35.5055 120.8L36.2344 120.812L36.2454 120.175L35.5165 120.163L35.5055 120.8ZM36.0991 120.78L39.6361 122.524L39.9178 121.952L36.3808 120.208L36.0991 120.78ZM39.4913 122.097L39.4638 122.153L40.0351 122.434L40.0626 122.379L39.4913 122.097ZM39.5519 122.044L38.9038 122.557L39.2989 123.056L39.947 122.543L39.5519 122.044ZM39.2422 122.521L36.5476 121.192L36.2659 121.763L38.9605 123.092L39.2422 122.521ZM36.1211 121.337L34.1185 125.398L34.6898 125.68L36.6924 121.619L36.1211 121.337ZM34.2633 125.825L36.8854 127.118L37.1671 126.546L34.545 125.254L34.2633 125.825ZM36.7406 126.691L36.7131 126.747L37.2844 127.029L37.3119 126.973L36.7406 126.691ZM36.8012 126.638L36.1531 127.151L36.5482 127.65L37.1963 127.138L36.8012 126.638ZM36.4915 127.115L34.1874 125.979L33.9057 126.55L36.2098 127.686L36.4915 127.115ZM33.7609 126.124L32.6826 128.311L33.2539 128.592L34.3322 126.405L33.7609 126.124ZM32.8274 128.737L36.6378 130.616L36.9195 130.045L33.1091 128.166L32.8274 128.737ZM36.493 130.189L36.4655 130.245L37.0368 130.527L37.0643 130.471L36.493 130.189ZM36.5536 130.136L35.9055 130.649L36.3006 131.148L36.9487 130.636L36.5536 130.136ZM36.2439 130.613L30.7988 127.928L30.5172 128.499L35.9622 131.184L36.2439 130.613Z" fill="white"></path><path d="M38.6188 132.22L40.9471 125.128L44.6883 123.803C45.5866 124.098 46.2217 124.622 46.5936 125.377C46.947 126.096 46.9833 126.882 46.7026 127.737L44.7663 133.635L43.4649 133.811L43.4058 133.791L45.5207 127.349C45.694 126.821 45.6925 126.347 45.5162 125.927C45.2988 125.406 44.9064 125.053 44.339 124.866C43.7599 124.676 43.2342 124.728 42.7622 125.023C42.3673 125.269 42.0851 125.65 41.9156 126.166L39.9754 132.076L38.6779 132.239L38.6188 132.22Z" fill="white"></path><path d="M38.6188 132.22L38.3162 132.12C38.2613 132.287 38.3523 132.467 38.5194 132.522L38.6188 132.22ZM40.9471 125.128L40.8408 124.827C40.7478 124.86 40.6753 124.935 40.6445 125.028L40.9471 125.128ZM44.6883 123.803L44.7876 123.5C44.7207 123.478 44.6483 123.479 44.5819 123.502L44.6883 123.803ZM46.5936 125.377L46.8794 125.237L46.8793 125.237L46.5936 125.377ZM44.7663 133.635L44.8087 133.951C44.9297 133.935 45.0308 133.851 45.0689 133.735L44.7663 133.635ZM43.4649 133.811L43.3656 134.113C43.4112 134.128 43.4597 134.133 43.5074 134.126L43.4649 133.811ZM43.4058 133.791L43.1032 133.692C43.0484 133.859 43.1393 134.039 43.3065 134.094L43.4058 133.791ZM45.5162 125.927L45.2223 126.05L45.2225 126.05L45.5162 125.927ZM42.7622 125.023L42.9304 125.293L42.9308 125.293L42.7622 125.023ZM39.9754 132.076L40.0151 132.392C40.1373 132.376 40.2396 132.292 40.278 132.175L39.9754 132.076ZM38.6779 132.239L38.5785 132.542C38.6233 132.556 38.6709 132.561 38.7176 132.555L38.6779 132.239ZM38.9214 132.319L41.2497 125.227L40.6445 125.028L38.3162 132.12L38.9214 132.319ZM41.0534 125.428L44.7946 124.103L44.5819 123.502L40.8408 124.827L41.0534 125.428ZM44.5889 124.105C45.4169 124.377 45.9787 124.85 46.3079 125.518L46.8793 125.237C46.4647 124.395 45.7563 123.818 44.7876 123.5L44.5889 124.105ZM46.3078 125.518C46.6198 126.152 46.6583 126.851 46.4001 127.638L47.0052 127.837C47.3084 126.913 47.2742 126.039 46.8794 125.237L46.3078 125.518ZM46.4001 127.638L44.4637 133.536L45.0689 133.735L47.0052 127.837L46.4001 127.638ZM44.7238 133.32L43.4224 133.495L43.5074 134.126L44.8087 133.951L44.7238 133.32ZM43.5642 133.508L43.5051 133.489L43.3065 134.094L43.3656 134.113L43.5642 133.508ZM43.7084 133.89L45.8233 127.449L45.2181 127.25L43.1032 133.692L43.7084 133.89ZM45.8233 127.449C46.015 126.865 46.022 126.309 45.8099 125.804L45.2225 126.05C45.363 126.385 45.373 126.778 45.2181 127.25L45.8233 127.449ZM45.8101 125.805C45.5547 125.193 45.0878 124.777 44.4384 124.564L44.2397 125.169C44.7249 125.328 45.0428 125.62 45.2223 126.05L45.8101 125.805ZM44.4384 124.564C43.7792 124.347 43.154 124.403 42.5936 124.753L42.9308 125.293C43.3145 125.054 43.7405 125.005 44.2397 125.169L44.4384 124.564ZM42.5939 124.753C42.1252 125.044 41.8017 125.492 41.613 126.066L42.2182 126.265C42.3685 125.807 42.6093 125.493 42.9304 125.293L42.5939 124.753ZM41.613 126.066L39.6728 131.976L40.278 132.175L42.2182 126.265L41.613 126.066ZM39.9356 131.76L38.6381 131.923L38.7176 132.555L40.0151 132.392L39.9356 131.76ZM38.7772 131.936L38.7181 131.917L38.5194 132.522L38.5785 132.542L38.7772 131.936Z" fill="white"></path><path d="M50.7177 135.451C49.765 135.29 49.0584 134.866 48.5981 134.179C48.1446 133.501 47.9909 132.729 48.137 131.862L49.3955 131.506L49.4568 131.517L49.3638 132.069C49.2728 132.608 49.3453 133.077 49.5811 133.474C49.8659 133.955 50.3068 134.246 50.9038 134.347C51.4885 134.445 52.0004 134.315 52.4394 133.956C52.791 133.666 53.013 133.247 53.1054 132.699C53.1943 132.172 53.1415 131.749 52.9471 131.43C52.6766 130.989 52.204 130.712 51.5292 130.598C50.7727 130.47 50.1721 130.117 49.7273 129.537C49.3825 129.088 49.2686 128.516 49.3858 127.821L49.485 127.232L52.3613 125.698C53.1252 125.882 53.6871 126.178 54.047 126.588C54.4844 127.086 54.6356 127.736 54.5006 128.538L53.2421 128.893L53.1808 128.883L53.2738 128.331C53.3586 127.828 53.2877 127.438 53.0612 127.16C52.8415 126.891 52.5537 126.727 52.198 126.667C51.8013 126.6 51.4614 126.671 51.1781 126.88C50.8948 127.089 50.7142 127.424 50.6363 127.886C50.5612 128.332 50.5984 128.673 50.748 128.908C50.9471 129.224 51.2696 129.419 51.7153 129.494C52.6926 129.659 53.4119 130.019 53.8731 130.577C54.3445 131.148 54.4982 131.92 54.3342 132.894L54.2184 133.581L50.7177 135.451Z" fill="white"></path><path d="M50.7177 135.451L50.6648 135.765C50.7343 135.777 50.8057 135.765 50.8678 135.732L50.7177 135.451ZM48.5981 134.179L48.3334 134.356L48.3335 134.356L48.5981 134.179ZM48.137 131.862L48.0504 131.555C47.932 131.589 47.8434 131.688 47.823 131.809L48.137 131.862ZM49.3955 131.506L49.4484 131.192C49.4019 131.184 49.3542 131.187 49.3089 131.2L49.3955 131.506ZM49.4568 131.517L49.7709 131.57C49.8001 131.396 49.6832 131.232 49.5097 131.203L49.4568 131.517ZM49.5811 133.474L49.8552 133.312L49.8549 133.311L49.5811 133.474ZM52.4394 133.956L52.6411 134.202L52.642 134.202L52.4394 133.956ZM52.9471 131.43L53.219 131.264L53.2186 131.263L52.9471 131.43ZM49.7273 129.537L49.9799 129.343L49.9799 129.343L49.7273 129.537ZM49.485 127.232L49.3352 126.951C49.248 126.997 49.1874 127.082 49.171 127.179L49.485 127.232ZM52.3613 125.698L52.4356 125.388C52.3599 125.37 52.2802 125.38 52.2114 125.417L52.3613 125.698ZM54.047 126.588L54.2864 126.378L54.2863 126.378L54.047 126.588ZM54.5006 128.538L54.5872 128.844C54.7056 128.811 54.7942 128.712 54.8146 128.591L54.5006 128.538ZM53.2421 128.893L53.1892 129.207C53.2357 129.215 53.2833 129.213 53.3287 129.2L53.2421 128.893ZM53.1808 128.883L52.8667 128.83C52.8375 129.003 52.9544 129.168 53.1279 129.197L53.1808 128.883ZM53.0612 127.16L53.308 126.958L53.3076 126.958L53.0612 127.16ZM51.1781 126.88L50.9891 126.624L51.1781 126.88ZM50.748 128.908L51.0172 128.738L51.0168 128.737L50.748 128.908ZM53.8731 130.577L54.1188 130.374L54.1184 130.374L53.8731 130.577ZM54.2184 133.581L54.3685 133.862C54.4555 133.815 54.5161 133.731 54.5325 133.634L54.2184 133.581ZM50.7707 135.137C49.8885 134.988 49.266 134.604 48.8627 134.002L48.3335 134.356C48.8508 135.129 49.6415 135.592 50.6648 135.765L50.7707 135.137ZM48.8628 134.002C48.4583 133.397 48.3173 132.708 48.4511 131.915L47.823 131.809C47.6645 132.749 47.831 133.605 48.3334 134.356L48.8628 134.002ZM48.2236 132.168L49.4821 131.813L49.3089 131.2L48.0504 131.555L48.2236 132.168ZM49.3425 131.82L49.4039 131.831L49.5097 131.203L49.4484 131.192L49.3425 131.82ZM49.1428 131.464L49.0497 132.016L49.6778 132.122L49.7709 131.57L49.1428 131.464ZM49.0497 132.016C48.9487 132.615 49.0261 133.163 49.3073 133.637L49.8549 133.311C49.6644 132.991 49.597 132.601 49.6778 132.122L49.0497 132.016ZM49.307 133.636C49.6439 134.205 50.1701 134.546 50.8509 134.661L50.9567 134.033C50.4435 133.946 50.0879 133.705 49.8552 133.312L49.307 133.636ZM50.8509 134.661C51.5216 134.774 52.1273 134.623 52.6411 134.202L52.2378 133.709C51.8735 134.007 51.4555 134.117 50.9567 134.033L50.8509 134.661ZM52.642 134.202C53.065 133.853 53.3172 133.358 53.4194 132.752L52.7913 132.646C52.7088 133.136 52.5171 133.479 52.2369 133.71L52.642 134.202ZM53.4194 132.752C53.5156 132.181 53.4676 131.672 53.219 131.264L52.6752 131.596C52.8154 131.826 52.8729 132.162 52.7913 132.646L53.4194 132.752ZM53.2186 131.263C52.8856 130.721 52.3166 130.408 51.5822 130.284L51.4763 130.912C52.0913 131.016 52.4676 131.257 52.6757 131.596L53.2186 131.263ZM51.5822 130.284C50.9007 130.169 50.3731 129.856 49.9799 129.343L49.4746 129.731C49.9711 130.378 50.6448 130.772 51.4763 130.912L51.5822 130.284ZM49.9799 129.343C49.7016 128.981 49.5935 128.504 49.6998 127.874L49.0717 127.768C48.9437 128.527 49.0633 129.195 49.4747 129.731L49.9799 129.343ZM49.6998 127.874L49.7991 127.285L49.171 127.179L49.0717 127.768L49.6998 127.874ZM49.6349 127.513L52.5112 125.979L52.2114 125.417L49.3352 126.951L49.6349 127.513ZM52.2869 126.008C53.0139 126.182 53.5065 126.455 53.8077 126.798L54.2863 126.378C53.8677 125.901 53.2365 125.581 52.4356 125.388L52.2869 126.008ZM53.8076 126.798C54.1677 127.208 54.3096 127.754 54.1865 128.485L54.8146 128.591C54.9616 127.718 54.8011 126.964 54.2864 126.378L53.8076 126.798ZM54.414 128.231L53.1555 128.587L53.3287 129.2L54.5872 128.844L54.414 128.231ZM53.295 128.579L53.2337 128.569L53.1279 129.197L53.1892 129.207L53.295 128.579ZM53.4948 128.936L53.5879 128.384L52.9598 128.278L52.8667 128.83L53.4948 128.936ZM53.5879 128.384C53.6812 127.83 53.6137 127.333 53.308 126.958L52.8143 127.361C52.9617 127.542 53.0359 127.826 52.9598 128.278L53.5879 128.384ZM53.3076 126.958C53.037 126.627 52.6793 126.425 52.2509 126.353L52.145 126.981C52.4282 127.029 52.646 127.155 52.8148 127.361L53.3076 126.958ZM52.2509 126.353C51.7824 126.274 51.352 126.356 50.9891 126.624L51.367 127.137C51.5707 126.986 51.8202 126.927 52.145 126.981L52.2509 126.353ZM50.9891 126.624C50.6196 126.896 50.4092 127.318 50.3223 127.834L50.9503 127.939C51.0192 127.531 51.1699 127.282 51.367 127.137L50.9891 126.624ZM50.3223 127.834C50.2417 128.311 50.2679 128.746 50.4791 129.079L51.0168 128.737C50.9289 128.599 50.8807 128.353 50.9503 127.939L50.3223 127.834ZM50.4787 129.078C50.7364 129.486 51.1479 129.721 51.6624 129.808L51.7682 129.18C51.3913 129.116 51.1579 128.961 51.0172 128.738L50.4787 129.078ZM51.6624 129.808C52.5923 129.965 53.2308 130.3 53.6278 130.78L54.1184 130.374C53.593 129.739 52.793 129.353 51.7682 129.18L51.6624 129.808ZM53.6274 130.779C54.0221 131.258 54.1742 131.927 54.0201 132.841L54.6482 132.947C54.8222 131.914 54.6669 131.038 54.1188 130.374L53.6274 130.779ZM54.0201 132.841L53.9044 133.528L54.5325 133.634L54.6482 132.947L54.0201 132.841ZM54.0683 133.3L50.5677 135.17L50.8678 135.732L54.3685 133.862L54.0683 133.3Z" fill="white"></path><path d="M56.8571 136.179L57.3923 126.864L58.6043 126.373L58.6664 126.377L58.1312 135.692L56.9192 136.183L56.8571 136.179Z" fill="white"></path><path d="M56.8571 136.179L56.5391 136.161C56.5291 136.337 56.6632 136.487 56.8388 136.497L56.8571 136.179ZM57.3923 126.864L57.2727 126.569C57.1586 126.616 57.0814 126.723 57.0743 126.846L57.3923 126.864ZM58.6043 126.373L58.6226 126.055C58.5755 126.053 58.5284 126.06 58.4847 126.078L58.6043 126.373ZM58.6664 126.377L58.9843 126.395C58.9944 126.22 58.8603 126.069 58.6847 126.059L58.6664 126.377ZM58.1312 135.692L58.2508 135.987C58.3649 135.941 58.4421 135.833 58.4492 135.71L58.1312 135.692ZM56.9192 136.183L56.9009 136.501C56.948 136.504 56.9951 136.496 57.0388 136.478L56.9192 136.183ZM57.1751 136.198L57.7102 126.883L57.0743 126.846L56.5391 136.161L57.1751 136.198ZM57.5119 127.16L58.7239 126.669L58.4847 126.078L57.2727 126.569L57.5119 127.16ZM58.586 126.691L58.6481 126.695L58.6847 126.059L58.6226 126.055L58.586 126.691ZM58.3484 126.359L57.8133 135.674L58.4492 135.71L58.9843 126.395L58.3484 126.359ZM58.0116 135.397L56.7996 135.888L57.0388 136.478L58.2508 135.987L58.0116 135.397ZM56.9375 135.865L56.8754 135.862L56.8388 136.497L56.9009 136.501L56.9375 135.865Z" fill="white"></path><path d="M64.6181 136.222C63.6741 136.275 62.8912 136.018 62.2694 135.451C61.6783 134.911 61.3574 134.192 61.3067 133.294L61.0615 128.946L64.0611 126.348C65.005 126.294 65.7879 126.551 66.4097 127.118C67.0009 127.658 67.3218 128.377 67.3725 129.276L66.224 129.901L66.1619 129.905L66.1304 129.346C66.0991 128.791 65.9247 128.35 65.6072 128.023C65.2147 127.618 64.7203 127.432 64.1241 127.465C63.5238 127.499 63.0535 127.74 62.7132 128.187C62.4345 128.547 62.3108 129.005 62.3421 129.56L62.5487 133.224C62.5796 133.77 62.754 134.211 63.0719 134.546C63.4562 134.952 63.9505 135.138 64.555 135.104C65.1471 135.071 65.6174 134.83 65.9659 134.383C66.2447 134.022 66.3684 133.565 66.3371 133.01L67.4855 132.384L67.5476 132.381L67.6177 133.623L64.6181 136.222Z" fill="white"></path><path d="M64.6181 136.222L64.636 136.54C64.7063 136.536 64.7734 136.509 64.8266 136.463L64.6181 136.222ZM62.2694 135.451L62.0547 135.686L62.0548 135.686L62.2694 135.451ZM61.0615 128.946L60.8529 128.706C60.7783 128.77 60.7379 128.866 60.7435 128.964L61.0615 128.946ZM64.0611 126.348L64.0431 126.03C63.9728 126.034 63.9058 126.061 63.8525 126.107L64.0611 126.348ZM66.4097 127.118L66.6245 126.883L66.6243 126.883L66.4097 127.118ZM67.3725 129.276L67.5248 129.555C67.6329 129.497 67.6974 129.381 67.6904 129.258L67.3725 129.276ZM66.224 129.901L66.242 130.219C66.289 130.217 66.3349 130.204 66.3763 130.181L66.224 129.901ZM66.1619 129.905L65.8439 129.923C65.8538 130.098 66.0042 130.233 66.1799 130.223L66.1619 129.905ZM65.6072 128.023L65.3784 128.245L65.3788 128.245L65.6072 128.023ZM62.7132 128.187L62.9651 128.381L62.9666 128.38L62.7132 128.187ZM63.0719 134.546L63.3033 134.327L63.3029 134.327L63.0719 134.546ZM65.9659 134.383L66.2172 134.579L66.2179 134.578L65.9659 134.383ZM66.3371 133.01L66.1847 132.73C66.0767 132.789 66.0122 132.905 66.0191 133.028L66.3371 133.01ZM67.4855 132.384L67.4676 132.067C67.4205 132.069 67.3746 132.082 67.3332 132.105L67.4855 132.384ZM67.5476 132.381L67.8656 132.363C67.8557 132.187 67.7053 132.053 67.5297 132.063L67.5476 132.381ZM67.6177 133.623L67.8262 133.864C67.9008 133.799 67.9412 133.704 67.9356 133.605L67.6177 133.623ZM64.6001 135.904C63.7301 135.953 63.0345 135.718 62.4841 135.216L62.0548 135.686C62.7479 136.319 63.6181 136.597 64.636 136.54L64.6001 135.904ZM62.4842 135.216C61.9623 134.739 61.6713 134.102 61.6246 133.276L60.9887 133.312C61.0434 134.282 61.3942 135.083 62.0547 135.686L62.4842 135.216ZM61.6246 133.276L61.3794 128.929L60.7435 128.964L60.9887 133.312L61.6246 133.276ZM61.27 129.187L64.2696 126.588L63.8525 126.107L60.8529 128.706L61.27 129.187ZM64.079 126.665C64.9491 126.616 65.6446 126.852 66.1951 127.354L66.6243 126.883C65.9312 126.251 65.061 125.972 64.0431 126.03L64.079 126.665ZM66.1949 127.354C66.7168 127.83 67.0079 128.467 67.0545 129.294L67.6904 129.258C67.6357 128.288 67.2849 127.486 66.6245 126.883L66.1949 127.354ZM67.2201 128.996L66.0717 129.622L66.3763 130.181L67.5248 129.555L67.2201 128.996ZM66.2061 129.583L66.144 129.587L66.1799 130.223L66.242 130.219L66.2061 129.583ZM66.4799 129.887L66.4484 129.328L65.8124 129.364L65.8439 129.923L66.4799 129.887ZM66.4484 129.328C66.4137 128.714 66.2176 128.195 65.8357 127.802L65.3788 128.245C65.6318 128.506 65.7845 128.868 65.8124 129.364L66.4484 129.328ZM65.8361 127.802C65.3751 127.326 64.7887 127.109 64.1062 127.147L64.1421 127.783C64.652 127.755 65.0543 127.91 65.3784 128.245L65.8361 127.802ZM64.1062 127.147C63.4203 127.186 62.8609 127.467 62.4598 127.994L62.9666 128.38C63.2461 128.012 63.6273 127.812 64.1421 127.783L64.1062 127.147ZM62.4612 127.992C62.1259 128.426 61.9895 128.964 62.0241 129.577L62.66 129.542C62.6321 129.046 62.743 128.669 62.9651 128.381L62.4612 127.992ZM62.0241 129.577L62.2308 133.242L62.8667 133.206L62.66 129.542L62.0241 129.577ZM62.2308 133.242C62.265 133.849 62.4618 134.366 62.8409 134.765L63.3029 134.327C63.0461 134.056 62.8941 133.692 62.8667 133.206L62.2308 133.242ZM62.8406 134.765C63.2951 135.245 63.8836 135.461 64.5729 135.422L64.5371 134.786C64.0174 134.815 63.6172 134.659 63.3033 134.327L62.8406 134.765ZM64.5729 135.422C65.252 135.384 65.8093 135.102 66.2172 134.579L65.7147 134.187C65.4255 134.558 65.0421 134.758 64.5371 134.786L64.5729 135.422ZM66.2179 134.578C66.5532 134.144 66.6897 133.606 66.655 132.992L66.0191 133.028C66.0471 133.524 65.9361 133.901 65.714 134.188L66.2179 134.578ZM66.4894 133.29L67.6378 132.664L67.3332 132.105L66.1847 132.73L66.4894 133.29ZM67.5034 132.702L67.5656 132.699L67.5297 132.063L67.4676 132.067L67.5034 132.702ZM67.2296 132.399L67.2997 133.641L67.9356 133.605L67.8656 132.363L67.2296 132.399ZM67.4091 133.382L64.4095 135.981L64.8266 136.463L67.8262 133.864L67.4091 133.382Z" fill="white"></path><path d="M69.4594 132.373L69.4464 132.313L69.6369 131.508L70.2026 131.387L69.5415 128.297L72.1056 125.268C73.0302 125.07 73.8432 125.204 74.5449 125.668C75.212 126.111 75.6397 126.772 75.828 127.652L77.1269 133.722L76.0909 134.529L76.0301 134.542L74.6115 127.912C74.4952 127.369 74.2551 126.96 73.8912 126.686C73.4409 126.346 72.9238 126.238 72.3399 126.363C71.7438 126.49 71.316 126.8 71.0567 127.293C70.8393 127.704 70.7875 128.175 70.9011 128.706L71.4191 131.127L74.2779 130.515L74.2909 130.576L74.1004 131.38L71.5883 131.918L72.2026 134.789L71.164 135.584L71.1032 135.597L70.3718 132.178L69.4594 132.373Z" fill="white"></path><path d="M69.4594 132.373L69.148 132.44C69.1848 132.612 69.354 132.722 69.526 132.685L69.4594 132.373ZM69.4464 132.313L69.1365 132.239C69.1256 132.285 69.1251 132.333 69.135 132.379L69.4464 132.313ZM69.6369 131.508L69.5703 131.197C69.4501 131.223 69.3554 131.315 69.327 131.435L69.6369 131.508ZM70.2026 131.387L70.2692 131.699C70.4412 131.662 70.5508 131.493 70.514 131.321L70.2026 131.387ZM69.5415 128.297L69.2984 128.092C69.2346 128.167 69.2094 128.268 69.23 128.364L69.5415 128.297ZM72.1056 125.268L72.039 124.957C71.9701 124.971 71.908 125.008 71.8625 125.062L72.1056 125.268ZM74.5449 125.668L74.7209 125.403L74.7207 125.403L74.5449 125.668ZM77.1269 133.722L77.3225 133.974C77.4189 133.899 77.4638 133.775 77.4383 133.656L77.1269 133.722ZM76.0909 134.529L76.1575 134.841C76.2045 134.831 76.2487 134.81 76.2866 134.781L76.0909 134.529ZM76.0301 134.542L75.7186 134.609C75.7554 134.781 75.9247 134.891 76.0967 134.854L76.0301 134.542ZM73.8912 126.686L73.6991 126.94L73.6996 126.941L73.8912 126.686ZM71.0567 127.293L71.3382 127.441L71.3384 127.441L71.0567 127.293ZM71.4191 131.127L71.1077 131.194C71.1445 131.366 71.3137 131.475 71.4857 131.439L71.4191 131.127ZM74.2779 130.515L74.5893 130.449C74.5525 130.277 74.3833 130.167 74.2113 130.204L74.2779 130.515ZM74.2909 130.576L74.6008 130.65C74.6117 130.604 74.6123 130.556 74.6024 130.51L74.2909 130.576ZM74.1004 131.38L74.167 131.692C74.2873 131.666 74.3819 131.573 74.4103 131.454L74.1004 131.38ZM71.5883 131.918L71.5217 131.606C71.3497 131.643 71.2401 131.812 71.2769 131.984L71.5883 131.918ZM72.2026 134.789L72.3961 135.042C72.4939 134.967 72.5398 134.843 72.514 134.722L72.2026 134.789ZM71.164 135.584L71.2306 135.895C71.2768 135.885 71.3201 135.865 71.3576 135.836L71.164 135.584ZM71.1032 135.597L70.7918 135.663C70.8286 135.835 70.9978 135.945 71.1698 135.908L71.1032 135.597ZM70.3718 132.178L70.6832 132.111C70.6464 131.939 70.4771 131.83 70.3052 131.867L70.3718 132.178ZM69.7708 132.307L69.7578 132.246L69.135 132.379L69.148 132.44L69.7708 132.307ZM69.7563 132.386L69.9468 131.582L69.327 131.435L69.1365 132.239L69.7563 132.386ZM69.7036 131.82L70.2692 131.699L70.136 131.076L69.5703 131.197L69.7036 131.82ZM70.514 131.321L69.8529 128.231L69.23 128.364L69.8912 131.454L70.514 131.321ZM69.7846 128.503L72.3487 125.474L71.8625 125.062L69.2984 128.092L69.7846 128.503ZM72.1722 125.579C73.0244 125.397 73.7479 125.522 74.369 125.934L74.7207 125.403C73.9386 124.885 73.0359 124.743 72.039 124.957L72.1722 125.579ZM74.3688 125.934C74.9578 126.324 75.3434 126.909 75.5166 127.719L76.1395 127.585C75.9361 126.635 75.4663 125.897 74.7209 125.403L74.3688 125.934ZM75.5166 127.719L76.8154 133.789L77.4383 133.656L76.1395 127.585L75.5166 127.719ZM76.9312 133.471L75.8952 134.278L76.2866 134.781L77.3225 133.974L76.9312 133.471ZM76.0243 134.218L75.9634 134.231L76.0967 134.854L76.1575 134.841L76.0243 134.218ZM76.3415 134.476L74.9229 127.846L74.3001 127.979L75.7186 134.609L76.3415 134.476ZM74.9229 127.846C74.7943 127.245 74.5207 126.762 74.0827 126.432L73.6996 126.941C73.9896 127.159 74.1962 127.493 74.3001 127.979L74.9229 127.846ZM74.0832 126.432C73.5544 126.032 72.9417 125.908 72.2732 126.051L72.4065 126.674C72.9059 126.567 73.3273 126.659 73.6991 126.94L74.0832 126.432ZM72.2732 126.051C71.5948 126.197 71.0828 126.56 70.7749 127.144L71.3384 127.441C71.5492 127.041 71.8927 126.784 72.4065 126.674L72.2732 126.051ZM70.7751 127.144C70.5171 127.632 70.4632 128.181 70.5897 128.773L71.2126 128.64C71.1118 128.169 71.1615 127.776 71.3382 127.441L70.7751 127.144ZM70.5897 128.773L71.1077 131.194L71.7305 131.06L71.2126 128.64L70.5897 128.773ZM71.4857 131.439L74.3446 130.827L74.2113 130.204L71.3525 130.816L71.4857 131.439ZM73.9665 130.582L73.9795 130.643L74.6024 130.51L74.5893 130.449L73.9665 130.582ZM73.981 130.503L73.7905 131.307L74.4103 131.454L74.6008 130.65L73.981 130.503ZM74.0338 131.069L71.5217 131.606L71.6549 132.229L74.167 131.692L74.0338 131.069ZM71.2769 131.984L71.8911 134.855L72.514 134.722L71.8997 131.851L71.2769 131.984ZM72.009 134.536L70.9705 135.331L71.3576 135.836L72.3961 135.042L72.009 134.536ZM71.0974 135.272L71.0366 135.285L71.1698 135.908L71.2306 135.895L71.0974 135.272ZM71.4146 135.53L70.6832 132.111L70.0604 132.245L70.7918 135.663L71.4146 135.53ZM70.3052 131.867L69.3928 132.062L69.526 132.685L70.4384 132.49L70.3052 131.867Z" fill="white"></path><path d="M85.9378 131.214L84.4444 128.053L83.6008 128.452L83.5742 128.396L83.5759 127.569L84.099 127.322L81.9519 122.778L82.4152 122.215L85.9808 120.53L86.0074 120.587L86.0057 121.413L83.2893 122.696L85.2238 126.791L87.8671 125.542L87.8937 125.598L87.892 126.424L85.5692 127.522L86.8235 130.176L85.994 131.187L85.9378 131.214Z" fill="white"></path><path d="M85.9378 131.214L85.6499 131.35C85.725 131.509 85.9148 131.577 86.0739 131.502L85.9378 131.214ZM84.4444 128.053L84.7324 127.917C84.6572 127.758 84.4674 127.69 84.3084 127.765L84.4444 128.053ZM83.6008 128.452L83.3129 128.588C83.388 128.747 83.5778 128.815 83.7369 128.74L83.6008 128.452ZM83.5742 128.396L83.2558 128.395C83.2557 128.442 83.2661 128.489 83.2863 128.532L83.5742 128.396ZM83.5759 127.569L83.4399 127.281C83.3287 127.334 83.2577 127.446 83.2575 127.569L83.5759 127.569ZM84.099 127.322L84.235 127.61C84.3941 127.535 84.4621 127.345 84.3869 127.186L84.099 127.322ZM81.9519 122.778L81.706 122.576C81.6277 122.671 81.6113 122.803 81.6639 122.914L81.9519 122.778ZM82.4152 122.215L82.2791 121.927C82.2367 121.947 82.1991 121.976 82.1693 122.013L82.4152 122.215ZM85.9808 120.53L86.2688 120.394C86.1937 120.235 86.0038 120.167 85.8448 120.242L85.9808 120.53ZM86.0074 120.587L86.3259 120.587C86.326 120.54 86.3156 120.493 86.2954 120.451L86.0074 120.587ZM86.0057 121.413L86.1418 121.701C86.2529 121.648 86.3239 121.537 86.3242 121.414L86.0057 121.413ZM83.2893 122.696L83.1532 122.408C82.9942 122.484 82.9262 122.673 83.0013 122.832L83.2893 122.696ZM85.2238 126.791L84.9358 126.927C85.011 127.086 85.2008 127.154 85.3598 127.079L85.2238 126.791ZM87.8671 125.542L88.1551 125.406C88.0799 125.247 87.8901 125.179 87.7311 125.254L87.8671 125.542ZM87.8937 125.598L88.2122 125.599C88.2123 125.551 88.2018 125.505 88.1816 125.462L87.8937 125.598ZM87.892 126.424L88.028 126.712C88.1392 126.66 88.2102 126.548 88.2105 126.425L87.892 126.424ZM85.5692 127.522L85.4332 127.234C85.2741 127.309 85.2061 127.499 85.2813 127.658L85.5692 127.522ZM86.8235 130.176L87.0697 130.378C87.1477 130.283 87.164 130.152 87.1114 130.04L86.8235 130.176ZM85.994 131.187L86.1301 131.475C86.1727 131.455 86.2104 131.426 86.2403 131.389L85.994 131.187ZM86.2258 131.078L84.7324 127.917L84.1565 128.189L85.6499 131.35L86.2258 131.078ZM84.3084 127.765L83.4648 128.164L83.7369 128.74L84.5805 128.341L84.3084 127.765ZM83.8888 128.316L83.8622 128.26L83.2863 128.532L83.3129 128.588L83.8888 128.316ZM83.8927 128.396L83.8944 127.57L83.2575 127.569L83.2558 128.395L83.8927 128.396ZM83.712 127.857L84.235 127.61L83.9629 127.034L83.4399 127.281L83.712 127.857ZM84.3869 127.186L82.2398 122.642L81.6639 122.914L83.811 127.458L84.3869 127.186ZM82.1978 122.98L82.6611 122.417L82.1693 122.013L81.706 122.576L82.1978 122.98ZM82.5512 122.503L86.1169 120.818L85.8448 120.242L82.2791 121.927L82.5512 122.503ZM85.6929 120.666L85.7195 120.723L86.2954 120.451L86.2688 120.394L85.6929 120.666ZM85.6889 120.586L85.6872 121.412L86.3242 121.414L86.3259 120.587L85.6889 120.586ZM85.8697 121.125L83.1532 122.408L83.4253 122.984L86.1418 121.701L85.8697 121.125ZM83.0013 122.832L84.9358 126.927L85.5117 126.655L83.5772 122.56L83.0013 122.832ZM85.3598 127.079L88.0032 125.83L87.7311 125.254L85.0877 126.503L85.3598 127.079ZM87.5792 125.678L87.6057 125.734L88.1816 125.462L88.1551 125.406L87.5792 125.678ZM87.5752 125.597L87.5735 126.424L88.2105 126.425L88.2122 125.599L87.5752 125.597ZM87.7559 126.136L85.4332 127.234L85.7053 127.81L88.028 126.712L87.7559 126.136ZM85.2813 127.658L86.5355 130.312L87.1114 130.04L85.8572 127.386L85.2813 127.658ZM86.5772 129.974L85.7478 130.985L86.2403 131.389L87.0697 130.378L86.5772 129.974ZM85.858 130.9L85.8018 130.926L86.0739 131.502L86.1301 131.475L85.858 130.9Z" fill="white"></path><path d="M95.2512 126.17C94.4593 126.687 93.6525 126.854 92.8308 126.673C92.0493 126.499 91.4126 126.036 90.9209 125.282L88.5417 121.635L89.847 117.887C90.6388 117.371 91.4456 117.203 92.2673 117.385C93.0489 117.558 93.6855 118.022 94.1772 118.775L93.4933 119.89L93.4412 119.924L93.1353 119.455C92.8317 118.99 92.4608 118.695 92.0226 118.57C91.4802 118.413 90.9589 118.499 90.4587 118.825C89.9552 119.153 89.6673 119.596 89.595 120.153C89.533 120.605 89.6539 121.063 89.9575 121.529L91.9628 124.602C92.2619 125.061 92.6328 125.356 93.0755 125.488C93.611 125.649 94.1323 125.563 94.6394 125.233C95.136 124.909 95.4239 124.466 95.5031 123.904C95.5651 123.453 95.4443 122.994 95.1406 122.529L95.8245 121.414L95.8766 121.38L96.5564 122.422L95.2512 126.17Z" fill="white"></path><path d="M95.2512 126.17L95.4252 126.437C95.4842 126.399 95.5288 126.342 95.5519 126.275L95.2512 126.17ZM92.8308 126.673L92.7618 126.983L92.762 126.983L92.8308 126.673ZM88.5417 121.635L88.2409 121.531C88.2085 121.624 88.2211 121.727 88.275 121.809L88.5417 121.635ZM89.847 117.887L89.6729 117.62C89.6139 117.659 89.5694 117.716 89.5462 117.782L89.847 117.887ZM92.2673 117.385L92.3363 117.074L92.3361 117.074L92.2673 117.385ZM94.1772 118.775L94.4486 118.942C94.513 118.837 94.5112 118.705 94.4439 118.601L94.1772 118.775ZM93.4933 119.89L93.6673 120.157C93.7068 120.131 93.7401 120.097 93.7647 120.057L93.4933 119.89ZM93.4412 119.924L93.1745 120.098C93.2706 120.245 93.4679 120.287 93.6152 120.191L93.4412 119.924ZM92.0226 118.57L91.9346 118.876L91.9352 118.876L92.0226 118.57ZM89.595 120.153L89.9105 120.197L89.9109 120.194L89.595 120.153ZM93.0755 125.488L93.1669 125.183L93.1665 125.183L93.0755 125.488ZM95.5031 123.904L95.8185 123.949L95.8186 123.947L95.5031 123.904ZM95.1406 122.529L94.8692 122.362C94.8048 122.467 94.8067 122.6 94.8739 122.703L95.1406 122.529ZM95.8245 121.414L95.6505 121.148C95.611 121.173 95.5777 121.207 95.5531 121.248L95.8245 121.414ZM95.8766 121.38L96.1434 121.206C96.0473 121.059 95.8499 121.017 95.7026 121.114L95.8766 121.38ZM96.5564 122.422L96.8572 122.527C96.8896 122.434 96.877 122.331 96.8231 122.248L96.5564 122.422ZM95.0771 125.904C94.3473 126.38 93.6271 126.523 92.8996 126.362L92.762 126.983C93.678 127.186 94.5713 126.994 95.4252 126.437L95.0771 125.904ZM92.8998 126.362C92.2099 126.209 91.64 125.801 91.1877 125.108L90.6542 125.456C91.1853 126.27 91.8887 126.79 92.7618 126.983L92.8998 126.362ZM91.1877 125.108L88.8084 121.461L88.275 121.809L90.6542 125.456L91.1877 125.108ZM88.8425 121.74L90.1477 117.992L89.5462 117.782L88.2409 121.531L88.8425 121.74ZM90.021 118.154C90.7508 117.678 91.471 117.535 92.1985 117.696L92.3361 117.074C91.4201 116.871 90.5268 117.063 89.6729 117.62L90.021 118.154ZM92.1983 117.696C92.8883 117.849 93.4581 118.256 93.9105 118.95L94.4439 118.601C93.9129 117.788 93.2095 117.268 92.3363 117.074L92.1983 117.696ZM93.9057 118.609L93.2218 119.724L93.7647 120.057L94.4486 118.942L93.9057 118.609ZM93.3193 119.623L93.2672 119.657L93.6152 120.191L93.6673 120.157L93.3193 119.623ZM93.7079 119.75L93.402 119.281L92.8686 119.629L93.1745 120.098L93.7079 119.75ZM93.402 119.281C93.0661 118.766 92.6372 118.414 92.1101 118.263L91.9352 118.876C92.2843 118.975 92.5972 119.213 92.8686 119.629L93.402 119.281ZM92.1107 118.263C91.4736 118.08 90.8572 118.185 90.2847 118.558L90.6328 119.092C91.0605 118.813 91.4867 118.747 91.9346 118.876L92.1107 118.263ZM90.2847 118.558C89.7094 118.934 89.3643 119.456 89.2792 120.112L89.9109 120.194C89.9702 119.737 90.201 119.373 90.6328 119.092L90.2847 118.558ZM89.2795 120.11C89.2049 120.653 89.3548 121.188 89.6908 121.703L90.2242 121.355C89.9529 120.939 89.8611 120.556 89.9105 120.197L89.2795 120.11ZM89.6908 121.703L91.6961 124.776L92.2296 124.428L90.2242 121.355L89.6908 121.703ZM91.6961 124.776C92.0284 125.286 92.4567 125.636 92.9844 125.793L93.1665 125.183C92.809 125.076 92.4955 124.836 92.2296 124.428L91.6961 124.776ZM92.984 125.793C93.6175 125.983 94.2352 125.877 94.8134 125.499L94.4653 124.966C94.0294 125.25 93.6045 125.314 93.1669 125.183L92.984 125.793ZM94.8134 125.499C95.383 125.128 95.7258 124.606 95.8185 123.949L95.1877 123.86C95.122 124.326 94.889 124.689 94.4653 124.966L94.8134 125.499ZM95.8186 123.947C95.8932 123.404 95.7433 122.87 95.4074 122.355L94.8739 122.703C95.1452 123.119 95.237 123.501 95.1876 123.861L95.8186 123.947ZM95.4121 122.695L96.096 121.581L95.5531 121.248L94.8692 122.362L95.4121 122.695ZM95.9986 121.681L96.0507 121.647L95.7026 121.114L95.6505 121.148L95.9986 121.681ZM95.6099 121.554L96.2897 122.596L96.8231 122.248L96.1434 121.206L95.6099 121.554ZM96.2556 122.317L94.9504 126.066L95.5519 126.275L96.8572 122.527L96.2556 122.317Z" fill="white"></path></svg>